<svg baseProfile="tiny" xmlns="http://www.w3.org/2000/svg" width="1481.946" height="398.343" overflow="scroll"><path d="M1130.769 188.055c-4.678 27.899-9.372 55.795-14.027 83.697-3.15 18.882-6.285 37.767-9.322 56.667-.465 2.895-1.399 4.134-4.688 4.123-37.829-.132-75.658-.11-113.487-.032-2.818.006-4.014-.754-4.665-3.683-15.512-69.838-31.121-139.655-46.807-209.454-.846-3.762-.448-5.092 3.922-5.061 28.329.203 56.66.175 84.99.041 3.571-.017 5.214.787 5.814 4.597 6.308 40.117 12.781 80.209 19.233 120.303.58 3.606 1.333 7.184 2.005 10.775.619 2.516 1.373 1.607 2.151.085 2.924-19.567 5.896-39.127 8.759-58.703 3.515-24.033 7.003-48.071 10.333-72.13.534-3.858 1.944-4.998 5.957-4.976 35.143.195 70.288.173 105.432.037 4.142-.016 5.916.774 6.608 5.436 5.45 36.692 11.274 73.328 17.001 109.989 1.271 7.832 4.068 15.296 4.639 23.256-.271-3.783.847-5.262 1.438-8.914 7.464-46.088-2.389 2.192 1.888-16.941 3.663-16.387 6.247-32.821 8.779-49.443 3.059-20.079 6.091-40.162 9.018-60.261.339-2.33 1.264-3.082 3.511-3.078 27.333.047 54.666.088 81.999-.007 5.149-.018 2.573 3.316 2.197 5.025-6.035 27.422-12.27 54.799-18.395 82.201-9.438 42.221-18.868 84.444-28.151 126.7-.721 3.282-1.976 4.236-5.258 4.226-37.166-.111-74.333-.135-111.499.023-3.92.017-4.951-1.311-5.526-4.958-6.999-44.393-14.182-88.758-21.327-133.128-.132-.82-.377-1.622-.57-2.433-.996-1.27-.085-2.895-.807-4.235-.763-1.422-.741.287-1.145.256zM816.755 179.776c-9.813-5.703-20.709-1.64-23.96 9.007-1.473 4.825-1.617 9.842-1.62 14.839-.021 41.32-.073 82.64.088 123.959.015 3.991-1.045 4.988-4.959 4.966-29.156-.158-58.314-.147-87.47.005-3.534.018-4.383-.955-4.378-4.415.102-69.81.104-139.621-.005-209.431-.006-3.618 1.149-4.375 4.521-4.36 27.49.124 54.982.133 82.472-.007 3.59-.018 4.449 1.152 4.383 4.556-.205 10.477-.075 20.961.31 31.848 9.95-22.322 26.548-36.288 50.702-39.97 22.786-3.473 44.676-1.344 63.852 13.227 1.42.907 2.711 1.964 3.784 3.272l-.066-.064c1.394 1.01 2.228 2.498 3.262 3.815 10.42 14.329 13.955 30.715 13.985 48.021.085 49.463-.03 98.925.126 148.388.013 4.269-1.283 5.15-5.297 5.128-28.81-.162-57.623-.159-86.433.015-4.059.025-5.326-.921-5.309-5.18.167-41.135.104-82.271.088-123.406-.001-1.99-.185-3.979-.283-5.969-.607-4.898-1.515-9.717-3.703-14.202l.043.054c-1.341-1.402-2.695-2.791-4.133-4.096zM14.043 301.41c4.942-5.691 9.752-11.317 14.333-17.583 5.654-7.735 11.011-15.685 16.497-23.543 5.142-9.953 12.338-18.526 18.703-27.651 3.382-4.849 4.512-4.945 9.353-1.655 11.717 7.962 23.697 15.478 36.554 21.47 17.538 8.174 35.566 14.972 54.652 18.664 23.602 5.794 47.628 5.836 71.69 5.4 1.665-.03 3.302-.267 4.935-.563 5.309-.338 10.596-.954 15.828-1.869 4.055-.709 6.263.793 7.422 4.646 4.232 14.067 6.553 28.491 8.229 43.038 1.43 12.414 1.012 24.886 1.097 37.344.042 6.165-1.155 12.23-1.207 18.397-.029 3.438 1.292 4.806 4.562 5.036 6.96.49 13.858 1.614 20.819 2.163 2.512.198 5.474.007 6.428 3.376-21.637 5.673-43.705 8.754-65.984 9.808-48.003 2.27-94.898-3.899-140.35-19.884-6.261-2.202-12.416-4.705-18.636-7.028-2.729-1.019-5.496-1.933-8.246-2.895-1.401-.501-2.779-1.049-3.939-2.026-1.294-.726-2.821-.963-4.006-1.916-20.774-10.329-40.978-21.616-59.769-35.315-7.647-5.576 1.213-16.052 5.319-20.825 1.921-2.232 3.828-4.415 5.716-6.589z"/><path d="M381.741 199.248c5.468 16.227 11.074 32.409 15.005 49.109 9.464 40.2 12.766 80.866 9.392 122.052-.204 2.487-.244 4.986-.36 7.48-.909 1.839-2.138 2.487-3.927 1.057-16.741-1.951-33.479-3.93-50.225-5.834-4.426-.503-8.878-.773-13.319-1.15-13.833-1.261-27.73-1.658-41.535-3.374-8.71-1.083-9.621-2.337-8.982-11.039.974-13.254.795-26.523-.2-39.817-1.573-21.016-5.929-41.413-12.28-61.431-8.759-27.938-22.364-53.35-40.073-76.614-.772-.873-1.279-1.99-2.141-2.749-2.769-2.439-1.797-4.536.324-6.755 10.018-10.479 20.68-20.205 32.457-28.712 14.21-10.265 29.47-18.716 45.2-26.324 3.755-1.816 4.429-3.739 2.77-7.356-3.741-8.161-7.318-16.398-10.8-24.675-.838-1.992-1.838-3.921-2.035-6.126.041-1.052.33-1.962 1.403-2.413 1.493-.315 2.582.505 3.457 1.476 4.917 5.457 10.405 10.454 13.922 17.055 10.065 13.439 20.266 26.768 29.183 41.039 10.593 16.953 19.351 34.841 27.787 52.912 3.131 3.461 3.718 7.962 4.977 12.189z"/><path d="M248.868 0c2.167.619 2.198 2.743 2.898 4.308 5.327 11.9 10.57 23.839 15.838 35.765 1.257 1.43 1.285 3.394 2.17 4.986l-.009-.018c.876.478.599 1.4.821 2.13l.215-.137-.231.108c1.305 1.387 1.376 3.332 2.225 4.925 2.14 6.206 4.723 12.221 7.809 18.017 4.206 4.521 5.219 10.642 7.859 15.945 2.882 5.79 5.22 11.866 7.713 17.854 2.278 5.472 2.145 6.291-3.216 8.89-17.283 8.379-33.423 18.564-48.41 30.547-12.359 9.882-23.556 21-33.99 32.886-8.129 8.676-14.723 18.503-21.231 28.396-9.442 13.822-16.793 28.744-23.249 44.135-2.758 6.575-3.258 6.918-10.055 5.136-28.511-7.478-54.709-19.945-78.734-36.952-10.667-7.551-10.475-7.644-18.207 2.719-3.555 4.764-6.232 10.311-11.501 13.65-1.748-.373-1.703-1.749-1.73-3.086.042-.837.381-1.546.929-2.166l-.929 2.166c.935-2.674 2.255-7.706 3.785-10.167 3.992-9.884 7.778-19.857 12.022-29.632 6.937-15.98 15.199-31.285 24.332-46.121 1.693-2.751 3.19-5.623 4.777-8.439 1.439-1.862 2.514-3.972 3.952-5.835 21.657-29.681 45.599-57.239 74.436-80.268 2.655-2.12 5.1-4.502 7.643-6.763.721-1.137 2.13-1.187 3.086-1.953 16.937-12.188 34.497-23.381 52.918-33.204 1.311-1.522 3.131-2.168 4.923-2.862.694-.363 1.389-.727 2.083-1.09 1.164-1.151 2.755-1.253 4.201-1.711l-.068.05c1.39-1.3 3.384-1.247 4.925-2.209zM1437.909 224.056c0 34.489-.055 68.978.079 103.466.015 3.778-.733 5.076-4.871 5.046-28.989-.206-57.981-.188-86.971-.019-3.94.023-5.012-1.041-5.006-4.97.111-69.478.107-138.956-.002-208.433-.006-3.658.824-4.841 4.666-4.819 29.156.16 58.315.153 87.471.007 3.738-.019 4.721 1.009 4.705 4.756-.15 34.988-.089 69.977-.089 104.966h.018zM1477.375 21.474c-3.333 4.79-7.852 9.761-9.672 12.286-10.092 13.999-22.77 29.859-26.841 46.985-1.042 4.384-3.4 5.185-7.386 5.135-13.439-.169-26.883-.025-40.324-.001-13.234-.892-26.484-.218-39.726-.374-9.386-.111-10.135-1.291-5.946-10.122.286-.603.006.206.314-.386 4.652-10.801 10.359-20.959 18.105-29.89 1.311-1.512 3.106-1.804 4.858-2.311 35.32-10.207 70.636-20.427 105.958-30.628.606-.175 1.263-.171 1.899-.242.83-.092 1.528-.474 2.397-.486 1.067 2.229-.878 6.07-3.636 10.034zM1481.946 13.221c-.692-1.426-2.12-1.01-3.265-1.302M1132.722 192.033c-.651-1.326-1.302-2.652-1.953-3.979M663.43 178.844c-10.181-34.857-31.552-58.499-67.961-66.478-21.618-4.738-43.417-3.781-65.065-.236-35.846 5.871-64.429 22.263-79.929 56.878-.635.483-.33 1.422-.931 1.921-1.196.754-.654 2.057-.975 3.088-1.289 1.895-1.764 4.031-1.861 6.279-5.423 22.823-6.274 45.833-2.099 68.9 7.456 41.194 30.672 68.904 70.995 81.492 18.32 5.719 37.215 6.944 56.305 6.653 26.921-.41 53.485-3.006 79.399-10.867 3.91-1.186 4.719-2.915 4.675-6.599-.187-15.496-.065-30.995-.102-46.492-.003-1.417.464-2.945-.75-4.582-15.776 8.062-32.804 11.49-50.324 12.71-14.988 1.043-29.979 1.296-44.548-3.332-12.055-3.829-19.972-11.552-22.479-24.311-.714-3.63-.224-5.197 4.184-5.166 29.828.206 59.657.111 89.487.112 11.665.001 23.33-.013 34.995.01 2.241.004 4.177.273 4.194-3.164.11-22.553-.836-44.992-7.21-66.816zm-79.851 23.771c-7.319-.134-14.643-.049-21.964-.049v.05c-7.156 0-14.312-.039-21.468.024-2.105.019-3.531-.321-3.513-2.908.069-10.09 1.227-19.943 6.575-28.784 4.94-8.166 12.284-11.845 21.828-11.031 9.074.774 14.302 6.349 17.513 14.261 3.306 8.145 4.025 16.74 4.204 25.434.051 2.501-.86 3.046-3.175 3.003z"/></svg>