<svg baseProfile="tiny" xmlns="http://www.w3.org/2000/svg" width="319.338" height="284" overflow="scroll"><path  d="M285 0H0v250h285V0zM31.721 72V19.824h209.996v9.96H51.858V72h-.217v10.784h20.04v10.08h-20.04v39.96h-19.92V72zm61.92 79.784h-20.04v80.04h-19.92v-80.04h-20.04v-9.96h60v9.96zm8.399-18.96H82.12v-90h49.92v9.96h-30v30h20.04v10.08h-20.04v39.96zm60.001 101h-19.92v-39.96h-20.04v39.96h-19.92v-90h19.92v39.84h20.04v-39.84h19.92v90zm62.519 1h-49.92v-90h19.92v80.04h30v9.96zm17.798-127.92l-25.8 25.92h-74.04v-90h19.92v79.92h20.04v-79.92h19.92v79.92h9.6l10.44-10.2v-69.72h19.92v64.08z"/><path  d="M299.338 29.495V263h-275v21h295V29.495z"/></svg>