<svg height="300" width="300" xmlns="http://www.w3.org/2000/svg" viewBox="0 0 90 90"><path d="M79.288 76.783C76.575 78.736 62.153 88.5 44.998 88.5c-17.133 0-31.573-9.764-34.288-11.717.209-12.822 7.48-19.784 23.144-21.837.247.229.493.453.748.671.578 5.897 5.508 10.537 11.551 10.537 6.05 0 10.983-4.641 11.559-10.539.14-.119.27-.246.409-.373 14.288 2.375 20.967 9.269 21.167 21.541zM16.542 35.421c1.937 1.476 5.222 2.814 9.386 3.837-.329-1.912-.554-3.844-.554-5.81 0-.693.041-1.385.081-2.08-4.813 1.26-7.663 2.792-8.913 4.053zm56.88-.025c-.79-.785-2.607-2.078-6.534-3.343.019.464.05.932.05 1.395 0 1.734-.173 3.44-.431 5.125 3.019-.916 5.385-2.001 6.915-3.177zm-44.399-4.823c-.145.027-.312.047-.457.074-.267.054-.492.113-.75.171-.07.862-.109 1.739-.109 2.63 0 2.651.326 5.204.916 7.596.111.444.297.833.426 1.267.32 1.074.626 2.156 1.052 3.148 1.162 2.711 2.716 5.081 4.54 7.017.014.012.021.028.033.04.004-.016.008-.028.012-.046.205-1.175.594-2.315 1.156-3.379-.648-.717-1.263-1.487-1.813-2.335-.917-1.409-1.684-2.969-2.285-4.646-.971-2.733-1.463-5.646-1.463-8.662 0-1.046.067-2.09.186-3.123-.484.085-.984.157-1.444.248zm33.388 14.413c.407-1.001.696-2.089.995-3.166.119-.44.303-.842.41-1.292.512-2.242.788-4.619.788-7.081 0-.718-.101-1.395-.149-2.094-.255-.068-.462-.134-.73-.201-.146-.033-.314-.06-.457-.095-.44-.102-.919-.188-1.38-.283.092.884.146 1.778.146 2.672 0 2.872-.452 5.662-1.337 8.281-.572 1.702-1.312 3.284-2.205 4.71-.603.966-1.296 1.833-2.022 2.643.565 1.085.967 2.243 1.171 3.441 1.95-2.052 3.583-4.614 4.77-7.535zm-3.928-4.001c.81-2.384 1.215-4.919 1.215-7.537 0-.807-.05-1.617-.128-2.417-.024-.245-.067-.489-.099-.734-.395-.063-.81-.114-1.207-.174-2.178-.326-4.437-.595-6.799-.756-2.135-.142-4.31-.214-6.468-.214-1.432 0-2.841.035-4.226.096-2.291.097-4.509.299-6.671.557-.398.048-.809.085-1.206.137-.007.028-.009.054-.011.083-.041.272-.094.544-.121.822-.092.859-.15 1.728-.15 2.601 0 2.75.447 5.403 1.331 7.88.533 1.503 1.221 2.898 2.038 4.158.383.584.833 1.08 1.265 1.593.245-.294.458-.602.73-.874.615-.611 1.283-1.169 2.021-1.627 1.855-1.155 3.987-1.766 6.154-1.766 2.09 0 4.145.566 5.946 1.636.824.487 1.576 1.083 2.255 1.75.265.265.461.592.703.88.505-.6 1.025-1.182 1.455-1.875.8-1.271 1.461-2.689 1.973-4.219zM33.31 21.022c1.443-.173 2.939-.263 4.423-.371-.086-1.515-.196-3.015-.196-4.574v-.214c.003-2.142.096-4.064.274-5.707.066-.624.17-1.153.265-1.72-6.234 2.454-11.066 7.63-13.046 14.085 1.175-.29 2.396-.563 3.694-.803 1.478-.27 3.019-.502 4.586-.696zm21.471-5.159v.214c0 1.61-.12 3.166-.217 4.731 1.599.156 3.167.335 4.666.566 1.584.245 3.133.536 4.603.865 1.293.291 2.492.617 3.639.965-1.836-6.769-6.781-12.222-13.23-14.764.089.569.196 1.097.262 1.714.176 1.662.271 3.578.277 5.709zm-14.735 4.595c.372-.02.755-.018 1.127-.028.403-.015.809-.017 1.216-.031.87-.016 1.736-.059 2.609-.059 1.643 0 3.278.095 4.916.176.391.02.777.02 1.164.042.407.028.819.015 1.221.046.088-1.469.149-2.968.149-4.527v-.209c-.01-2.11-.1-3.92-.265-5.469-.107-1.054-.257-1.982-.43-2.805-.101-.477-.219-.889-.342-1.294-.145-.491-.3-.932-.468-1.331C49.789 2.255 48.08 1.5 46.152 1.5c-1.919 0-3.631.755-4.783 3.47-.168.399-.328.839-.472 1.331-.121.405-.239.817-.337 1.294-.177.822-.321 1.751-.429 2.805-.167 1.549-.257 3.359-.264 5.469v.209c0 1.507.058 2.962.14 4.382.012 0 .027 0 .039-.002zM14.15 34.652c1.578-2.331 5.767-4.35 11.551-5.758.391-.094.803-.179 1.208-.265.399-.09.79-.184 1.204-.269.387-.077.813-.132 1.217-.204.51-.092 1.032-.179 1.559-.264.412-.066.793-.146 1.215-.207.399-.055.828-.092 1.235-.14.402-.051.814-.096 1.23-.141 1.961-.219 3.982-.397 6.104-.489 1.415-.059 2.856-.096 4.325-.096 2.271 0 4.486.079 6.623.222 2.172.144 4.221.383 6.205.66.411.059.826.115 1.232.18.403.065.835.114 1.229.181.431.074.806.174 1.222.255.528.1 1.045.208 1.554.317.397.093.836.164 1.216.254.407.101.794.208 1.189.318.413.11.824.222 1.224.342 4.536 1.347 7.804 3.111 9.159 5.104.25-.379.427-.765.541-1.154.088-.307.153-.613.153-.923 0-2.166-2.243-4.16-5.998-5.791-.397-.174-.815-.344-1.248-.508-.406-.155-.811-.311-1.247-.458-1.432-.485-3.017-.918-4.73-1.304-1.401-.314-2.891-.596-4.451-.836-1.406-.216-2.893-.388-4.41-.535-.383-.042-.771-.074-1.162-.107-.388-.035-.766-.076-1.162-.105-.374-.028-.785-.02-1.165-.044-.383-.022-.782-.022-1.168-.041-1.584-.08-3.149-.175-4.806-.175-.852 0-1.666.039-2.5.06-.391.012-.784.012-1.169.03-.385.01-.789.005-1.17.024-.4.02-.763.079-1.164.102-.394.025-.767.065-1.158.096-1.436.108-2.895.193-4.246.36-1.547.184-3.033.412-4.453.671-1.691.312-3.287.667-4.762 1.068-.436.119-.836.251-1.251.379-.423.128-.859.249-1.256.387-5.219 1.768-8.419 4.127-8.419 6.726 0 .31.065.616.155.917.117.397.288.78.545 1.161zm41.101 17.811c.086.39.155.794.188 1.2.025.272.053.541.053.817v.004c0 .131-.031.25-.035.383-.018.413-.051.819-.125 1.219-.113.651-.281 1.283-.526 1.883-1.384 3.43-4.726 5.854-8.653 5.854-3.917 0-7.262-2.425-8.648-5.854-.24-.6-.412-1.231-.525-1.883-.085-.484-.14-.976-.148-1.476 0-.046-.012-.085-.012-.126v-.004c0-.348.033-.697.071-1.038.044-.411.121-.811.22-1.2.121-.493.274-.979.47-1.438.157-.366.341-.727.545-1.069.199-.342.475-.62.713-.932.242-.309.458-.637.734-.913.504-.5 1.056-.955 1.662-1.33 1.428-.896 3.11-1.416 4.918-1.416 1.74 0 3.366.485 4.758 1.313.674.395 1.285.878 1.839 1.427.277.276.478.616.722.922.239.313.52.587.719.929.199.343.379.703.543 1.069.228.526.388 1.088.517 1.659zm-4.002 2.027v-.006c0-.411-.062-.803-.151-1.189-.106-.426-.264-.832-.462-1.208-.017-.03-.024-.067-.04-.096-.875-1.553-2.53-2.603-4.443-2.603-1.902 0-3.56 1.05-4.435 2.603l-.003.004c-.206.364-.367.764-.48 1.183-.1.375-.145.772-.158 1.181 0 .041-.014.081-.014.126 0 .98.285 1.894.765 2.67.9 1.455 2.5 2.423 4.325 2.423 1.837 0 3.438-.968 4.335-2.423.48-.777.761-1.688.761-2.665zm-2.674-1.318c-.004-.013-.004-.024-.012-.034-.301-.535-.776-.926-1.316-1.165-.121-.053-.235-.121-.367-.151-.233-.067-.475-.101-.728-.101-.244 0-.491.033-.723.101-.109.025-.204.085-.306.126-.341.146-.664.33-.928.601-.174.171-.321.369-.445.586-.205.369-.303.762-.333 1.175-.002.062-.018.115-.018.176 0 .508.135.999.409 1.439l.002.004c.381.618.972 1.05 1.647 1.227.224.06.458.089.696.089.242 0 .479-.029.703-.089.677-.177 1.264-.608 1.65-1.227.274-.444.413-.933.413-1.443 0-.045-.014-.085-.019-.126-.017-.421-.12-.823-.325-1.188z"/></svg>