<svg baseProfile="tiny" xmlns="http://www.w3.org/2000/svg" width="1299.001" height="244.268" overflow="scroll"><path d="M45.616 240.397c-13.67 0-27.34-.095-41.008.069-3.304.04-4.693-.584-4.605-4.302.252-10.663.083-21.336.095-32.005.002-1.642-.126-3.235 1.09-4.713 5.744-6.986 6.858-15.44 6.884-24.006.11-36.507.085-73.015-.017-109.522-.024-8.571-.861-17.062-6.983-23.895C.038 40.869.101 39.61.1 38.298.089 26.796.107 15.293.082 3.791.077 1.558.346-.018 3.291 0c25.33.154 50.661.27 75.99.193 3.971-.012 5.644.35 5.555 5.221-.382 20.997-.048 42.007-.258 63.009-.044 4.383 1.114 4.645 4.672 3.022 21.012-9.588 42.882-11.792 65.362-6.713 20.854 4.712 33.446 20.47 33.608 41.972.19 25.17.085 50.343.074 75.514-.003 6.867.718 13.368 7.099 17.687 1.519 1.028 1.627 2.812 1.632 4.514.028 10.168-.013 20.337.115 30.503.051 4.062-1.779 5.684-5.739 5.677-22.837-.041-45.675.045-68.512-.019-5.259-.015-6.763-1.606-7.29-7.972-1.182-14.28-2.401-28.562-2.374-42.914.033-18.004.012-36.007-.024-54.011-.01-5.172-.213-10.36-2.082-15.262-3.626-9.505-13.683-13.611-23.022-9.602-2.488 1.068-3.573 2.859-3.584 5.429-.095 23.336-.236 46.671-.219 70.007.003 4.694 1.985 8.806 5.692 11.765 2.594 2.07 3.597 4.512 3.564 7.771-.096 9.667-.132 19.338.073 29.002.094 4.412-1.841 5.867-5.998 5.835-14.002-.109-28.005-.041-42.008-.041-.001-.064-.001-.127-.001-.19zM777.552 198.521c7.949.203 14.562.51 21.128-.815 6.304-1.271 9.183-4.362 9.791-10.826 1.432-15.219.065-14.349 15.877-14.389 11.163-.028 22.326-.057 33.489-.058 6.208-.001 6.581.371 6.582 6.445.004 18.327-.003 36.654-.015 54.981-.004 6.127-.588 6.705-6.957 6.705-45.818-.001-91.636-.017-137.455-.023-9.497-.001-18.996-.095-28.49.077-4.331.078-5.933-1.73-5.871-5.967.149-10.158.102-20.321.009-30.481-.033-3.555 1.235-6.407 3.536-9.028 25.066-28.536 50.102-57.097 75.125-85.67 1.048-1.197 3.252-2.206 2.549-3.906-.735-1.777-2.954-.747-4.496-.703-6.877.192-8.332-1.088-7.785-8.05.668-8.497.25-16.984.239-25.476-.008-6.033.648-6.737 6.429-6.739 31.656-.013 63.313.077 94.968-.081 4.816-.024 6.486 1.555 6.333 6.368-.292 9.154-.281 18.331.008 27.485.138 4.363-1.346 7.601-4.187 10.731-25.529 28.125-50.977 56.324-76.446 84.503-1.202 1.33-2.38 2.682-4.361 4.917zM639.505 104.896c-7.168 0-13.287-.21-19.385.065-5.109.23-8.121 3.121-9.11 8.299-.636 3.333-.441 6.631-.455 9.954-.022 5.33-1.994 7.754-7.123 7.296-13.658-1.218-27.319-.469-40.976-.502-3.946-.01-5.215-1.648-5.194-5.427.104-18.001.108-36.003-.021-54.004-.03-4.208 1.437-6.034 5.804-6.029 54.839.059 109.678.046 164.516-.038 4.537-.007 6.223 1.841 6.134 6.3-.186 9.33-.162 18.667-.025 27.999.066 4.503-1.792 7.925-4.716 11.143-24.655 27.14-49.25 54.334-73.864 81.512-1.007 1.112-2.056 2.188-3.006 3.347-.714.871-2.078 1.657-1.674 2.871.556 1.668 2.279.918 3.494.994 9.243.583 10.327 1.625 10.4 10.705.07 8.667-.052 17.336.093 26.001.061 3.644-1.511 5.182-5.039 5.181-32.336-.007-64.673.005-97.009.029-3.483.003-5.125-1.451-5.08-5.136.129-10.666.065-21.334.035-32.002-.012-4.137 2.09-7.211 4.683-10.155 23.686-26.886 47.345-53.796 71.001-80.708 1.976-2.246 3.869-4.563 6.517-7.695zM1198.646 155.585c0-14.666-.052-29.333.032-43.998.025-4.339-.438-7.803-6.192-6.932-2.779.421-3.376-1.619-3.39-3.794-.069-10.664-.096-21.329-.102-31.993-.002-3.045 1.341-4.701 4.64-4.232 3.786.539 5.067-1.423 5.021-4.935-.101-7.832.09-15.672-.187-23.496-.151-4.255 1.478-6.442 5.577-7.424 21.506-5.153 42.999-10.364 64.458-15.707 4.297-1.07 5.292.616 5.251 4.486-.139 13.332-.117 26.665-.135 39.998-.01 6.786.425 7.209 7.007 7.08 4.832-.094 9.668-.108 14.494-.34 2.441-.117 3.563.401 3.528 3.209-.145 11.498-.195 23.001.015 34.497.071 3.89-2.343 4.472-5.036 4.646-3.984.257-7.995.138-11.993.108-3.626-.027-5.716 1.585-5.712 5.323.023 23.66.047 47.321.149 70.981.03 6.902 3.668 11.084 10.25 12.969 4.1 1.175 9.737 1.226 11.653 4.527 1.895 3.264.587 8.414.605 12.736.034 7.833-.019 15.666.029 23.499.012 1.952.006 3.406-2.601 3.843-20.846 3.493-41.667 4.906-62.517.062-23.539-5.469-34.23-18.433-34.646-42.615-.244-14.162-.044-28.331-.044-42.497-.053-.001-.103-.001-.154-.001zM501.304 76.109c9.394-11.409 20.578-16.007 34.116-15.485 4.639.179 6.722 2.04 6.726 6.578.012 16.495.049 32.991.102 49.486.012 3.698-1.48 5.608-5.448 5.235-1.974-.186-4.002-.071-5.984.131-18.023 1.832-26.092 10.556-26.233 28.721-.094 12.149-.652 24.314.559 36.447.493 4.943 2.679 8.908 6.921 11.526 2.278 1.406 3.035 3.33 3.033 5.842-.008 10.33-.026 20.661.085 30.99.039 3.69-1.698 4.993-5.197 4.989-28.159-.036-56.318-.028-84.478.031-3.752.008-5.407-1.424-5.342-5.351.166-9.994.113-19.994.029-29.99-.026-3.117 1.036-5.383 3.689-7.108 3.964-2.578 5.561-6.494 5.563-11.104.009-22.994.003-45.988-.012-68.982-.003-4.628-1.781-8.532-5.527-11.202-2.934-2.091-3.787-4.669-3.728-8.118.161-9.328.274-18.668-.041-27.988-.167-4.944 1.756-6.269 6.432-6.233 22.493.175 44.988.074 67.482.072 7.125 0 7.145.029 7.069 7.325-.008.988.084 1.977.184 4.188zM1127.986 240.567c-13.498 0-26.998-.116-40.494.064-4.656.062-6.629-1.485-6.484-6.359.283-9.49.167-18.994.121-28.492-.015-3.023.699-5.347 3.447-7.185 4.175-2.793 5.908-7.132 5.917-12.059.042-22.664.043-45.327-.014-67.991-.012-4.927-1.825-9.163-6.011-12.003-2.5-1.696-3.355-3.956-3.349-6.804.023-9.998.088-19.997-.036-29.994-.049-3.909 1.615-5.21 5.425-5.194 24.33.101 48.66.099 72.99-.014 3.839-.018 5.638 1.345 5.394 5.21-.042.664-.006 1.333-.003 1.999.178 37.81.405 75.619.486 113.429.013 6.115 1.495 11.151 7.207 14.253 2.556 1.388 2.886 3.799 2.872 6.436-.049 9.665-.163 19.334.064 28.994.106 4.519-1.934 5.772-6.037 5.738-13.831-.114-27.663-.044-41.494-.044-.001.005-.001.011-.001.016zM1123.637.328c11.662-.575 21.695 1.924 30.454 8.322 16.004 11.691 14.149 32.045-3.759 40.629-16.345 7.836-32.955 8.247-49.564.58-11.873-5.481-16.929-12.987-16.344-24.198.504-9.652 7.9-18.366 19.107-21.929 6.783-2.156 13.616-4.511 20.106-3.404zM402.597 204.227c.006-2.159-.522-3.765-2.446-5.048-4.044-2.696-5.934-6.732-5.967-11.494-.089-12.827-.03-25.656-.03-38.483-.238 0-.477 0-.715-.001 0-11.165.124-22.333-.046-33.495-.104-6.846-1.311-13.564-3.62-20.051-5.924-16.648-19.328-24.3-35.088-28.95-21.944-6.475-44.386-6.236-66.908-4.602-21.021 1.525-40.87 7.118-59.649 16.726-5.005 2.561-7.449 5.722-7.106 11.694.525 9.137.16 18.326.117 27.493-.033 7.062.461 7.591 7.726 7.585 16.168-.014 32.336-.096 48.504-.033 14.15.055 12.92-1.386 14.222-12.274 1.149-9.611 7.928-13.649 17.28-10.862 6.923 2.063 10.404 8.112 10.242 17.455-.063 3.642-1.415 5.833-5.158 6.808-11.1 2.893-22.173 5.904-33.19 9.099-16.107 4.671-32.387 8.773-47.025 17.568-31.196 18.743-24.543 63.952-4.611 78.389 16.624 12.041 35.527 14.167 55.25 11.492 12.089-1.64 22.894-6.845 33.113-13.246 3.727-2.335 4.573-.872 4.507 2.651-.015.831-.101 1.662-.2 2.488-.468 3.916 1.449 5.463 5.188 5.457 23.668-.037 47.337-.056 71.005-.024 3.391.005 4.739-1.455 4.697-4.84-.13-10.5-.123-21.002-.092-31.502zm-88.227-11.858c-6.479 3.145-13.076 5.727-19.948 2.022-5.993-3.232-6.687-12.914-1.455-17.834 6.45-6.067 15.004-7.565 23.14-9.853 1.709-.48 2.436.587 2.449 2.191.02 2.499.005 4.998.005 7.496h-.07c0 1.665-.226 3.368.043 4.988.754 4.521.913 8.526-4.164 10.99zM1053.905 176.738c-20.162-.047-40.325-.077-60.487-.091-6.367-.004-7.682 1.444-7.326 7.676.114 1.989.235 4.021-.035 5.98-1.225 8.868-6.616 13.651-14.622 13.151-8.463-.528-13.575-5.773-13.981-14.575-.23-4.991-.126-9.996-.294-14.991-.229-6.847.661-7.745 7.558-7.726 14.829.041 29.659.013 44.488.013v.269c15.164 0 30.328-.052 45.491.036 3.865.023 6.471-.755 6.391-5.422-.272-15.825-.009-31.669-.69-47.473-.551-12.783-4.513-24.544-14.218-33.625-7.092-6.636-15.63-10.904-24.92-13.114-33.937-8.073-68.064-8.188-101.887.179-22.172 5.485-34.816 19.962-36.658 40.921-2.543 28.925-2.315 57.937-.138 86.881 1.009 13.408 6.073 25.197 17.416 33.451 7.926 5.768 16.888 9.299 26.333 11.509 23.66 5.537 47.612 5.081 71.567 2.731 20.395-2.001 39.872-7.233 57.771-17.635 3.948-2.294 5.59-5.299 5.384-9.781-.474-10.323-.446-20.652-.017-30.982.254-6.068-1.062-7.368-7.126-7.382zm-97.234-59.385c.719-5.968 2.369-11.348 8.625-13.998 8.98-3.804 17.464-.065 20.166 9.019 3.915 13.165 1.893 15.905-11.741 15.906h-2.985c-1.493 0-2.985.002-4.478-.001-10.033-.017-10.799-.863-9.587-10.926z"/></svg>