<svg version="1.1" baseProfile="tiny" xmlns="http://www.w3.org/2000/svg" width="468.648px" height="161.524px" viewBox="0 0 468.648 161.524" overflow="scroll">
<g>
<path d="M130.788,161.524h-15.505v-34.297h-8.457v34.297H91.32V89.21h15.505v28.719h8.457V89.21h15.505V161.524z"/>
<path d="M181.106,156.359c0,3.409-2.396,5.165-7.048,5.165h-25.372c-4.651,0-7.048-1.756-7.048-5.165V94.376 c0-3.409,2.397-5.166,7.048-5.166h25.372c4.652,0,7.048,1.757,7.048,5.166V156.359z M159.963,98.507 c-1.832,0-2.819,0.723-2.819,2.066v49.587c0,1.343,0.987,2.066,2.819,2.066h2.819c1.832,0,2.819-0.723,2.819-2.066v-49.587 c0-1.343-0.987-2.066-2.819-2.066H159.963z"/>
<path d="M224.378,98.507h-16.915v21.488h15.646v9.298h-15.646v32.231h-15.505V89.21h32.42V98.507z"/>
<path d="M247.776,152.226h16.632v9.298h-32.138V89.21h15.505V152.226z"/>
<path d="M312.473,161.524h-16.21l-2.537-16.116h-9.021l-2.537,16.116h-14.519l14.237-72.314h16.21L312.473,161.524z M285.691,136.111h6.907l-3.383-21.694L285.691,136.111z"/>
<path d="M359.269,152.226c0,6.199-4.228,9.298-12.686,9.298h-26.782V89.21h26.782c8.458,0,12.686,3.1,12.686,9.298V152.226z M335.307,98.507v53.719h5.638c1.832,0,2.819-0.723,2.819-2.066v-49.587c0-1.343-0.987-2.066-2.819-2.066H335.307z"/>
<path d="M405.078,98.507h-19.452v19.422h18.606v9.298h-18.606v25h19.734v9.298h-35.239V89.21h34.957V98.507z"/>
<path d="M468.648,161.524h-26.923l-12.264-59.917v59.917h-14.095V89.21h25.513l12.264,59.918V89.21h15.505V161.524z"/>
<path d="M54.904,33.703c-11.051,0-20.005,8.754-20.005,19.554c0,9.326,6.69,17.111,15.633,19.061h23.494v-24.83 C71.51,39.504,63.901,33.703,54.904,33.703"/>
<path d="M130.327,53.303c0-10.8-8.955-19.554-20.005-19.554c-8.866,0-16.372,5.639-19.002,13.441v25.126h23.552 C123.726,70.303,130.327,62.564,130.327,53.303"/>
<path d="M91.32,34.747c4.87-4.756,11.57-7.72,19-7.72c14.847,0,26.891,11.764,26.891,26.274c0,7.496-3.239,14.231-8.388,19.016 h36.524C161.316,34.218,130.321,3.94,91.319,0v34.747H91.32z"/>
<path d="M36.454,72.317c-5.178-4.788-8.439-11.541-8.439-19.058c0-14.512,12.043-26.274,26.89-26.274 c7.494,0,14.245,3.014,19.125,7.843V0.004C35.029,3.941,4.031,34.218,0,72.318L36.454,72.317L36.454,72.317z"/>
<path d="M74.029,89.21H0.001c4.031,38.1,35.025,68.376,74.028,72.314L74.029,89.21L74.029,89.21z"/>
</g>
</svg>
