<svg version="1.1" baseProfile="tiny" xmlns="http://www.w3.org/2000/svg"  width="512.168px" height="126.268px" viewBox="0 0 512.168 126.268" overflow="scroll" xml:space="preserve">
<g> <!-- #e60012 -->
<path d="M76.109,61.915c-5.608,12.508-8.578,25.275-7.976,34.333c0.246,3.623,1.459,6.642,6.711,6.125 c10.114-1.121,27.389-8.799,34.126-18.461c2.715-3.882,3.046-7.246-0.526-10.783C103.43,68.126,90.728,64.331,76.109,61.915z"/>
<path d="M30.639,120.316l5.575,5.952c9.367-3.278,21.628-27.518,29.79-47.532l-4.208,2.76 C57.671,90.814,43.867,119.453,30.639,120.316z"/>
<path d="M73.088,56.912C82.057,39.745,85.96,21.199,85.374,7.655c-0.297-6.642-3.996-8.195-9.859-7.505 C57.239,2.134,34.949,13.78,26.464,27.41c-2.359,3.709-3.784,8.971,0.153,12.94C35.025,48.803,53.896,54.842,73.088,56.912z"/>
<path d="M70.806,61.053c-18.242-2.588-38.326-3.192-49.848-1.38C2.639,62.347,0.043,72.267,0,84.344 c-0.034,10.697,4.225,20.445,17.886,17.512C42.467,96.593,59.843,80.031,70.806,61.053z"/>
<path d="M498.194,11.537c-7.679,0-13.974,6.384-13.974,14.32c0,8.023,6.296,14.32,13.974,14.32c7.662,0,13.974-6.297,13.974-14.32 C512.168,17.921,505.855,11.537,498.194,11.537z M498.194,37.33c-5.973,0-10.767-5.09-10.767-11.473s4.794-11.473,10.767-11.473 c5.956,0,10.793,5.09,10.793,11.473S504.15,37.33,498.194,37.33z"/>
<path d="M500.264,26.892c1.935-0.086,3.521-1.984,3.521-4.486c0-2.76-1.858-4.658-4.65-4.658h-5.863v16.045h3.105v-6.729 c0.178,0,0.339,0.086,0.492,0.172c0.568,0.259,1.052,1.035,2.613,3.882c0.585,1.121,0.865,1.553,1.459,2.674h3.733 c0,0-2.859-5.09-3.759-6.211C500.722,27.323,500.569,27.151,500.264,26.892z M497.438,24.649h-1.061v-4.313h1.128 c0.755,0,1.442,0.086,1.782,0.259c0.764,0.259,1.12,0.949,1.12,1.898c0,0.69-0.212,1.208-0.594,1.639 C499.398,24.477,498.788,24.649,497.438,24.649z"/>
<path d="M106.603,24.132C94.911,30.946,85.06,43.714,78.23,57.343c16.825,1.208,33.226-0.776,42.348-6.815 c5.379-3.623,5.634-9.834,4.03-18.029C122.512,21.802,114.172,19.732,106.603,24.132z"/>
<path d="M442.126,11.537c-23.8,0-43.103,19.668-43.103,43.822c0,24.24,19.303,43.822,43.103,43.822s43.094-19.582,43.094-43.822 C485.22,31.205,465.926,11.537,442.126,11.537z M442.126,74.337c-10.309,0-18.675-8.454-18.675-18.978 c0-10.438,8.366-18.978,18.675-18.978c10.318,0,18.667,8.54,18.667,18.978C460.793,65.883,452.444,74.337,442.126,74.337z"/>
<path d="M243.319,11.537c-23.791,0-43.094,19.668-43.094,43.822c0,24.24,19.303,43.822,43.094,43.822s43.094-19.582,43.094-43.822 C286.413,31.205,267.11,11.537,243.319,11.537z M243.319,74.337c-10.318,0-18.675-8.454-18.675-18.978 c0-10.438,8.358-18.978,18.675-18.978s18.675,8.54,18.675,18.978C261.994,65.883,253.636,74.337,243.319,74.337z"/>
<polygon points="405.514,12.141 349.404,12.141 344.805,35.605 362.53,35.605 362.53,97.629 387.221,97.629 387.221,35.605 400.915,35.605"/>
<polygon points="174.193,12.141 149.248,12.141 149.248,97.629 197.297,97.629 201.896,73.82 174.193,73.82"/>
<polygon points="289.663,12.141 285.064,35.605 302.789,35.605 302.789,97.629 327.479,97.629 327.479,35.605 341.174,35.605 345.764,12.141"/>
</g>
</svg>
