<svg baseProfile="tiny" xmlns="http://www.w3.org/2000/svg" width="798.105" height="101.953" overflow="scroll"><path d="M69.088 50.309l1.172-2.632c9.218-20.786 15.896-34.298 20.037-40.539.663-.858 1.229-1.531 1.698-2.018.469-.487 1.005-.926 1.611-1.316.605-.39 1.396-.78 2.373-1.17 2.812-1.208 6.443-1.813 10.896-1.813 2.303 0 3.758.196 4.364.586.605.391.908 1.27.908 2.637 0 1.055-.04 2.188-.117 3.398-.313 7.031-.469 12.032-.469 15 0 7.5.507 14.61 1.523 21.328.664 3.75 1.641 7.559 2.93 11.426 1.367 3.438 2.675 6.075 3.926 7.91 1.484 2.032 2.734 3.516 3.75 4.453 1.25 1.25 1.875 2.208 1.875 2.871 0 1.211-1.036 2.852-3.105 4.922-3.477 3.36-6.954 5.039-10.43 5.039-4.883 0-9.316-2.089-13.301-6.27-2.032-2.031-3.643-4.287-4.834-6.768-1.192-2.48-2.08-5.546-2.666-9.199-.586-3.652-.977-8.291-1.172-13.916-.274-6.094-.43-9.531-.469-10.313h-.234c-2.463 4.727-4.516 8.672-6.157 11.836-1.643 3.164-2.981 5.782-4.017 7.852-1.037 2.071-2.258 4.551-3.665 7.441-4.457 9.219-7.369 14.786-8.737 16.699-.079.079-.234.254-.469.527-.234.274-.449.489-.646.645-.665.625-1.416 1.104-2.257 1.436-.84.333-1.554.498-2.14.498-1.643 0-3.45-1.025-5.424-3.076-1.974-2.051-3.704-4.697-5.189-7.939-1.525-3.437-2.769-6.944-3.73-10.521-.961-3.576-1.805-7.817-2.531-12.723-.726-4.906-1.363-10.895-1.913-17.97h-.235c-1.175 2.578-2.056 4.511-2.642 5.8-.588 1.289-1.488 3.281-2.702 5.977-1.214 2.695-1.918 4.257-2.114 4.686-1.606 3.555-3.29 7.148-5.051 10.781-1.762 3.633-3.179 6.427-4.252 8.382-1.073 1.956-2.253 3.892-3.54 5.808-.586.9-1.62 2.172-3.102 3.814-2.302 2.191-4.818 3.902-7.549 5.134-2.732 1.232-5.327 1.848-7.784 1.848-.937 0-1.756-.234-2.458-.703S0 79.083 0 78.34c0-.664.527-1.542 1.583-2.637.586-.703 1.856-2.5 3.812-5.391l3.401-5.273c2.11-3.125 5.296-8.73 9.557-16.816l2.814-5.273c6.567-12.578 11.004-21.182 13.31-25.811s3.459-7.314 3.459-8.057c0-.82-.591-1.738-1.772-2.754-.906-.742-1.359-1.386-1.359-1.934 0-.859 1.133-1.67 3.402-2.432C40.475 1.2 42.938.819 45.597.819c5.358 0 9.17 1.192 11.438 3.574 1.408 1.485 2.718 4.405 3.93 8.76 1.212 4.356 2.427 10.663 3.645 18.922.079.468.137.829.176 1.082.04.253.079.478.118.672.039.195.059.449.059.76.236 1.091.354 1.812.354 2.162.824 5.026 1.453 8.269 1.885 9.73.433 1.461 1.061 2.738 1.886 3.828zM170.273 63.926v.234l-.234-.234c-3.633 4.258-6.963 7.745-9.99 10.459-3.028 2.715-5.821 4.756-8.379 6.123-2.559 1.367-4.913 2.051-7.061 2.051-4.375 0-7.989-1.465-10.84-4.395-2.852-2.93-4.277-6.64-4.277-11.133 0-2.773.703-6.054 2.109-9.844 1.406-3.789 3.34-7.5 5.801-11.133 4.102-5.937 9.258-10.976 15.469-15.117 6.406-4.257 12.578-6.387 18.516-6.387 5 0 9.111 1.025 12.334 3.076s4.834 4.639 4.834 7.764c0 2.305-.801 4.746-2.402 7.324 2.109 0 3.437.225 3.984.674.546.45.82 1.494.82 3.135 0-.156-.098.645-.293 2.402-.234 3.867-.352 7.481-.352 10.84 0 1.758.019 3.086.059 3.984.039.899.117 1.934.234 3.105s.234 2.109.352 2.813c.312 1.836.82 3.653 1.523 5.449-2.344 2.305-4.59 3.995-6.738 5.068-2.149 1.074-4.336 1.611-6.563 1.611-6.016 0-9.023-5.039-9.023-15.117 0-1.17.039-2.088.117-2.752zm3.516-13.418l-1.113.352c-2.813.782-4.844 1.172-6.094 1.172-1.523 0-2.285-.39-2.285-1.172 0-.273.312-.996.938-2.168 2.187-3.32 3.281-6.445 3.281-9.375 0-1.679-.293-3.212-.879-4.6-.586-1.386-1.23-2.08-1.934-2.08-.625 0-1.582.665-2.871 1.992-3.633 3.946-6.514 7.989-8.643 12.129-2.129 4.141-3.193 7.833-3.193 11.074 0 2.149.439 3.926 1.318 5.332s1.982 2.109 3.311 2.109c1.132 0 3.252-1.21 6.357-3.633 3.105-2.421 6.592-5.625 10.459-9.609l1.582-1.289-.234-.234zM216.211 63.105l-.234 1.172c0 .665-.079 1.622-.234 2.871-.157 1.915-.372 3.477-.645 4.688-.274 1.211-.684 2.217-1.23 3.018-.547.801-1.289 1.651-2.227 2.549-2.852 2.618-5.723 3.926-8.613 3.926-2.344 0-4.072-.859-5.186-2.578-1.113-1.718-1.67-4.492-1.67-8.32 0-3.047.341-6.806 1.025-11.279.683-4.472 1.513-8.486 2.49-12.041l.469-1.523c0-.234.117-.722.352-1.465 1.445-5.312 2.773-9.248 3.984-11.807 1.21-2.558 2.675-4.619 4.395-6.182 1.523-1.21 3.242-1.816 5.156-1.816 2.773 0 4.453 1.68 5.039 5.039.546-.469 1.074-1.015 1.582-1.641 1.132-1.367 2.011-2.275 2.637-2.725.625-.449 1.348-.674 2.168-.674 3.359 0 5.039 3.321 5.039 9.961 0 3.633-.391 7.148-1.172 10.547-.782 3.398-1.768 6.172-2.959 8.32-1.192 2.149-2.373 3.223-3.545 3.223-1.289 0-1.934-2.441-1.934-7.324 0-2.578-.146-4.6-.439-6.064s-.752-2.607-1.377-3.428c-1.172 2.188-1.934 7.188-2.285 15-.274 4.531-.469 7.382-.586 8.553zM243.856 81.563c-1.756-.117-3.356-.917-4.799-2.402-1.444-1.562-2.468-3.252-3.073-5.068-.604-1.816-.906-4.169-.906-7.061 0-6.445 1.201-13.72 3.604-21.826 2.402-8.105 5.126-13.975 8.173-17.607 1.21-1.523 2.89-2.285 5.037-2.285 2.265 0 4.091 1.036 5.477 3.105 1.386 2.07 2.08 4.785 2.08 8.144 0 4.96-.715 10.771-2.144 17.43-1.428 6.66-3.434 13.583-6.018 20.77-1.015 2.893-2.263 4.847-3.746 5.863-1.014.625-2.205.938-3.569.938h-.116zm7.042-58.887c-3.672-.117-5.508-2.324-5.508-6.621 0-2.148.537-4.638 1.611-7.471 1.074-2.832 2.294-4.931 3.662-6.299.703-.742 1.416-1.269 2.139-1.582.722-.312 1.65-.469 2.783-.469 1.953 0 3.388.479 4.307 1.436.917.958 1.377 2.549 1.377 4.775 0 2.774-.479 5.401-1.436 7.881-.958 2.481-2.237 4.493-3.838 6.035-1.602 1.543-3.243 2.314-4.922 2.314h-.175zM285.586 64.629c.429 2.344 1.953 3.516 4.57 3.516 2.93 0 6.738-1.718 11.426-5.156 2.734-1.992 4.57-2.988 5.508-2.988 1.172 0 2.265.313 3.281.938 1.015.625 1.523 1.27 1.523 1.934 0 .703-.567 1.622-1.699 2.754-2.071 2.071-4.453 4.092-7.148 6.064-2.695 1.973-5.293 3.614-7.793 4.922-2.5 1.309-5 2.344-7.5 3.105-2.5.762-4.727 1.143-6.68 1.143-4.883 0-8.789-1.396-11.719-4.189-2.93-2.792-4.395-6.513-4.395-11.162 0-3.554.771-7.568 2.314-12.041 1.542-4.472 3.623-8.662 6.24-12.568 3.085-4.57 6.875-8.379 11.367-11.426 5.546-3.671 10.859-5.508 15.938-5.508 3.671 0 6.552 1.163 8.643 3.486 2.089 2.325 3.135 5.518 3.135 9.58 0 3.164-.831 6.465-2.49 9.902-1.661 3.438-4.112 6.738-7.354 9.902-2.657 2.657-5.264 4.727-7.822 6.211-2.559 1.485-4.795 2.227-6.709 2.227-.859-.002-1.738-.216-2.636-.646zm-.117-1.875c1.796-1.21 3.164-2.421 4.102-3.633 2.07-2.539 3.671-5.449 4.805-8.73.898-2.148 1.601-4.55 2.109-7.207.507-2.656.762-5.136.762-7.441 0-2.148-.45-3.223-1.348-3.223-1.25 0-3.164 2.754-5.742 8.262-1.523 3.321-2.764 6.631-3.721 9.932-.958 3.301-1.436 6.143-1.436 8.525 0 .82.156 1.991.469 3.515zM341.581 50.082l3.531-4.112c3.57-3.956 6.4-6.903 8.489-8.84 2.087-1.938 3.96-3.336 5.619-4.197 1.659-.861 3.347-1.292 5.064-1.292 2.771 0 4.722.743 5.854 2.227 1.131 1.485 1.698 4.063 1.698 7.734 0 1.523-.157 3.77-.469 6.738-.469 3.946-.703 7.657-.703 11.133 0 3.907.195 7.071.586 9.492.273 1.485.683 2.969 1.23 4.453.39 1.406.586 2.364.586 2.871 0 .625-.234 1.113-.703 1.465-1.211 1.055-2.813 1.973-4.805 2.754s-3.672 1.172-5.039 1.172c-2.227 0-4.248-.762-6.064-2.285s-3.223-3.633-4.219-6.328-1.494-5.742-1.494-9.141c0-2.265.234-4.941.703-8.027l-.234-.234c-1.68 1.875-3.038 3.36-4.072 4.453-1.036 1.094-2.002 2.129-2.9 3.105-4.375 5-8.086 9.512-11.133 13.535-1.172 1.563-2.247 2.93-3.223 4.102-1.446 1.445-3.086 2.168-4.922 2.168-2.5 0-4.532-.938-6.094-2.813-1.563-1.875-2.344-4.296-2.344-7.266 0-1.835.214-4.082.645-6.738.429-2.656 1.005-5.498 1.729-8.525.722-3.027 1.582-6.142 2.578-9.346.996-3.203 2.08-6.25 3.252-9.141 1.796-4.805 3.984-8.555 6.563-11.25 1.758-1.758 3.886-2.637 6.387-2.637 4.063 0 6.095 2.637 6.095 7.91 0 3.867-.809 9.409-2.425 16.624l.234.236zM417.07 9.551v-.938c0-1.445-.196-2.168-.586-2.168-.508 0-1.299.782-2.373 2.344-1.075 1.563-2.042 3.301-2.9 5.215-2.149 4.883-4.043 10.049-5.684 15.498s-2.911 10.889-3.809 16.318c-.313 2.109-.645 4.395-.996 6.855l.293.234c3.906-4.023 6.816-6.875 8.73-8.555 1.914-1.679 4.395-3.593 7.441-5.742 3.828-2.656 6.992-3.984 9.492-3.984 1.601 0 2.842.577 3.721 1.729.879 1.153 1.318 2.745 1.318 4.775 0 1.172-.234 2.852-.703 5.039-.82 4.61-1.23 8.496-1.23 11.66 0 1.446.117 2.969.352 4.57.195 1.25.839 3.77 1.934 7.559.898 2.891 1.348 4.493 1.348 4.805 0 .547-.645 1.211-1.934 1.992-4.141 2.735-7.95 4.102-11.426 4.102-2.852 0-5.167-1.388-6.943-4.165-1.778-2.776-2.666-6.393-2.666-10.852 0-1.76.176-3.891.527-6.394l-.293-.234c-5.546 5.717-9.256 9.574-11.13 11.571-6.955 6.716-12.307 10.074-16.057 10.074-1.719 0-3.136-1.143-4.249-3.428s-1.67-5.263-1.67-8.936c0-7.89 2.441-17.968 7.324-30.234 1.953-4.765 4.023-9.326 6.211-13.682 2.187-4.355 4.277-8.115 6.27-11.279 1.445-2.227 2.959-4.169 4.541-5.83 1.582-1.66 3.183-3.047 4.805-4.16 1.621-1.113 3.271-1.943 4.951-2.49 1.679-.546 3.359-.82 5.039-.82 4.179 0 7.588 1.289 10.225 3.867s3.955 5.879 3.955 9.902c0 2.813-.801 5.801-2.402 8.965-1.602 3.164-3.848 6.172-6.738 9.023-1.836 1.797-3.917 3.389-6.24 4.775-2.325 1.387-4.131 2.08-5.42 2.08-.391 0-.743-.136-1.055-.41-.313-.273-.469-.625-.469-1.055 0-.586.507-1.855 1.523-3.809 1.172-2.148 2.324-4.775 3.457-7.881 1.132-3.105 2.001-6.054 2.607-8.848.606-2.79.909-5.144.909-7.058zM476.719 22.031c5.82 0 8.73.684 8.73 2.051 0 1.563-1.309 2.402-3.926 2.52-3.164.196-6.114 1.094-8.848 2.695-2.735 1.602-5.167 3.79-7.295 6.563-2.129 2.774-3.79 5.899-4.98 9.375-1.192 3.477-1.787 7.148-1.787 11.016 0 4.258.996 7.686 2.988 10.283 1.992 2.598 4.589 3.896 7.793 3.896 2.968 0 5.566-1.523 7.793-4.57s3.34-6.601 3.34-10.664c0-3.32-.694-6.435-2.08-9.346-1.387-2.91-3.409-5.361-6.064-7.354-1.133-.898-1.699-1.542-1.699-1.934 0-.546.8-1.386 2.402-2.52 1.796-1.21 3.809-2.227 6.035-3.047s4.102-1.23 5.625-1.23c1.758 0 3.428.459 5.01 1.377 1.582.918 2.978 2.227 4.189 3.926 1.21 1.699 2.139 3.653 2.783 5.859.645 2.208.967 4.561.967 7.061 0 4.141-.782 8.232-2.344 12.275-1.563 4.043-3.614 7.315-6.152 9.814-3.281 3.164-7.236 5.752-11.865 7.764-4.629 2.012-9.034 3.018-13.213 3.018-4.063 0-8.096-.703-12.1-2.109-4.004-1.406-7.178-3.261-9.521-5.566-3.125-3.125-4.688-7.559-4.688-13.301 0-4.531 1.113-9.062 3.34-13.594 2.227-4.531 5.244-8.643 9.053-12.334s8.007-6.601 12.598-8.73c4.589-2.129 9.228-3.194 13.916-3.194zM524.221 68.376l-.117 3.223c-.547 7.775-1.25 14.103-2.109 18.986-.858 4.883-1.833 7.872-2.927 8.966-1.483 1.601-3.806 2.402-6.966 2.402-3.396 0-5.834-.665-7.317-1.992-.586-.665-.977-1.27-1.172-1.816-.195-.547-.292-1.543-.292-2.988V93.34c.117-10.977 1.172-22.011 3.164-33.105 1.992-11.093 4.629-21.201 7.91-30.322 3.281-9.121 6.875-16.348 10.781-21.68 3.906-5.332 7.793-7.998 11.66-7.998 1.758 0 3.076.596 3.955 1.787.879 1.192 1.318 2.9 1.318 5.127 0 3.321-.352 6.846-1.055 10.576-.703 3.731-1.553 6.768-2.549 9.111s-2.002 3.516-3.018 3.516c-.938 0-1.406-1.641-1.406-4.922V23.614c0-3.281-.068-5.429-.203-6.445-.136-1.015-.436-1.699-.901-2.051-.427.86-.736 1.856-.929 2.99-.948 4.688-1.718 8.926-2.309 12.715-.592 3.788-1.48 9.94-2.664 18.455-.041.469-.099.996-.178 1.582s-.138 1.113-.178 1.582h.822c.47-.039.9-.068 1.292-.088.392-.019.999-.029 1.822-.029 1.488-.195 2.819-.293 3.994-.293 4.66 0 6.99 1.211 6.99 3.632 0 1.25-.44 2.764-1.32 4.541-.88 1.777-1.925 3.251-3.137 4.423-1.212 1.172-2.591 2.021-4.136 2.548s-3.764.889-6.657 1.084c-.626 0-1.065.01-1.319.029-.253.02-.536.049-.849.087zM597.656 13.887l.82-2.051c-1.289 0-2.383.108-3.281.322-.899.215-1.954.557-3.164 1.025-1.485.547-2.5.82-3.047.82-.665 0-1.211-.253-1.641-.762-.43-.507-.645-1.132-.645-1.875 0-1.523.615-3.095 1.846-4.717 1.23-1.621 2.744-2.763 4.541-3.428 2.344-.938 5.361-1.689 9.053-2.256 3.691-.566 7.354-.85 10.986-.85 4.102 0 7.783.293 11.045.879 3.261.586 6.161 1.523 8.701 2.813 2.539 1.289 4.766 2.891 6.68 4.805 1.913 1.915 3.389 4.141 4.424 6.68 1.034 2.54 1.553 5.235 1.553 8.086 0 2.578-.519 5.469-1.553 8.672-1.035 3.204-2.471 6.328-4.307 9.375-1.837 3.047-3.848 5.625-6.035 7.734-2.54 2.461-5.752 4.541-9.639 6.24-3.888 1.699-7.433 2.549-10.635 2.549-1.368 0-2.569-.244-3.604-.732-1.036-.488-1.553-1.084-1.553-1.787 0-1.093.41-2.119 1.23-3.076.82-.957 2.324-2.139 4.512-3.545 1.875-1.093 3.633-2.401 5.273-3.925 1.953-2.148 3.389-4.433 4.307-6.855.917-2.422 1.377-5.312 1.377-8.672 0-3.203-.547-5.917-1.64-8.144s-2.869-4.219-5.328-5.977l-8.026 26.016-1.465 4.57c-.625 1.797-1.465 4.883-2.52 9.258-1.914 7.539-3.71 12.773-5.391 15.702-.743 1.289-1.7 2.559-2.872 3.809-1.876 1.641-4.25 3.076-7.122 4.307s-5.343 1.845-7.414 1.845c-1.368 0-2.452-.4-3.253-1.201-.801-.8-1.201-1.923-1.201-3.369 0-1.601.4-3.945 1.201-7.031.8-3.085 2.451-8.613 4.951-16.582l1.055-3.281 1.113-3.574 10.668-31.817zM681.797 22.031c5.82 0 8.73.684 8.73 2.051 0 1.563-1.31 2.402-3.926 2.52-3.164.196-6.114 1.094-8.848 2.695-2.734 1.602-5.166 3.79-7.295 6.563-2.13 2.774-3.789 5.899-4.98 9.375-1.192 3.477-1.787 7.148-1.787 11.016 0 4.258.996 7.686 2.988 10.283 1.992 2.598 4.59 3.896 7.793 3.896 2.968 0 5.566-1.523 7.793-4.57s3.34-6.601 3.34-10.664c0-3.32-.694-6.435-2.08-9.346-1.387-2.91-3.408-5.361-6.064-7.354-1.134-.898-1.699-1.542-1.699-1.934 0-.546.8-1.386 2.402-2.52 1.796-1.21 3.809-2.227 6.035-3.047s4.102-1.23 5.625-1.23c1.758 0 3.428.459 5.01 1.377 1.582.918 2.979 2.227 4.189 3.926 1.21 1.699 2.139 3.653 2.783 5.859.645 2.208.967 4.561.967 7.061 0 4.141-.782 8.232-2.344 12.275-1.563 4.043-3.613 7.315-6.152 9.814-3.281 3.164-7.236 5.752-11.865 7.764-4.629 2.012-9.033 3.018-13.213 3.018-4.063 0-8.096-.703-12.1-2.109-4.005-1.406-7.178-3.261-9.521-5.566-3.126-3.125-4.688-7.559-4.688-13.301 0-4.531 1.113-9.062 3.34-13.594 2.227-4.531 5.244-8.643 9.053-12.334s8.007-6.601 12.598-8.73c4.59-2.129 9.228-3.194 13.916-3.194zM725.215 83.496c2.305-.117 4.403-1.241 6.299-3.369 1.895-2.128 2.842-4.443 2.842-6.943 0-1.718-.566-3.085-1.699-4.102-1.211-1.21-3.926-2.402-8.145-3.574-6.211-1.796-10.254-3.809-12.129-6.035-1.758-1.796-2.637-3.945-2.637-6.445 0-4.492 1.631-8.984 4.893-13.477 3.261-4.492 7.432-8.174 12.51-11.045 5.077-2.871 10.195-4.307 15.352-4.307 2.499 0 4.843.586 7.031 1.758 2.188 1.172 3.926 2.725 5.215 4.658s1.934 4.034 1.934 6.299c0 2.227-.703 4.532-2.109 6.914-1.406 2.383-3.174 4.365-5.303 5.947-2.13 1.582-4.151 2.373-6.064 2.373-1.094 0-2.042-.234-2.842-.703-.801-.469-1.201-.976-1.201-1.523 0-.546.155-1.348.469-2.402.858-3.359 1.289-6.289 1.289-8.789 0-2.461-.742-4.785-2.227-6.973-1.914 1.328-3.164 2.38-3.75 3.16-1.485 1.718-2.637 3.669-3.457 5.854-.899 2.225-1.348 4.332-1.348 6.321 0 1.405.323 2.528.97 3.367.646.838 1.702 1.552 3.167 2.139 1.465.586 3.681 1.232 6.649 1.936 4.96 1.213 8.454 2.386 10.485 3.52.469.273 1.191.84 2.167 1.699 1.483 1.602 2.226 3.674 2.226 6.213 0 2.697-.841 5.423-2.52 8.178-1.68 2.755-4.277 5.598-7.793 8.528-3.75 3.165-7.48 5.432-11.191 6.8-3.712 1.368-7.813 2.052-12.305 2.052-4.336 0-7.744-.86-10.225-2.578-2.481-1.719-3.721-4.063-3.721-7.031 0-2.109.82-4.248 2.461-6.416s3.682-3.935 6.123-5.303c2.44-1.367 4.834-2.051 7.178-2.051 1.758 0 2.637.391 2.637 1.172 0 .391-.255 1.036-.762 1.934-1.523 2.735-2.285 5.254-2.285 7.559-.001 1.638.605 3.2 1.816 4.685zM772.676 24.316l.234-.703c2.581-7.266 4.811-12.382 6.688-15.352.899-1.406 2.151-2.656 3.755-3.75 3.012-1.914 5.847-2.871 8.506-2.871 1.564 0 2.757.353 3.578 1.057s1.232 1.721 1.232 3.05c0 .9-.59 2.734-1.769 5.502-2.005 4.609-3.498 8.924-4.48 12.946.664.079 1.31.196 1.936.352 2.347.352 3.892.753 4.635 1.202.743.45 1.115 1.26 1.115 2.432 0 2.071-.527 3.986-1.581 5.744-1.055 1.759-2.44 3.049-4.157 3.869-1.288.586-3.377.977-6.266 1.172-.502 1.524-1.063 3.615-1.68 6.273-.348 2.346-.734 5.589-1.159 9.731-.235 1.522-.353 2.947-.353 4.274 0 6.167 2.988 9.25 8.966 9.25h.528c.703 0 1.055.117 1.055.352 0 .625-.664 1.68-1.992 3.164-1.328 1.485-2.793 2.793-4.395 3.926-1.719 1.172-3.595 2.109-5.629 2.813-2.035.703-3.874 1.055-5.518 1.055-4.109 0-7.446-1.386-10.009-4.16-2.564-2.773-3.846-6.445-3.846-11.016 0-1.953.342-4.512 1.025-7.676.683-3.164 1.748-7.402 3.193-12.715.234-.938.488-1.923.762-2.959.272-1.035.43-1.65.469-1.846-1.563-.039-2.676-.371-3.34-.996-.665-.625-.996-1.641-.996-3.047 0-2.461.946-4.785 2.842-6.973 1.895-2.185 4.111-3.552 6.651-4.1z"/></svg>