<svg baseProfile="tiny" xmlns="http://www.w3.org/2000/svg" width="218.999" height="108.39"><path d="M170.025 97.167c0-6.144 4.826-11.149 10.798-11.149 5.958 0 10.794 5.001 10.794 11.149 0 6.189-4.836 11.187-10.794 11.187-5.972 0-10.798-4.997-10.798-11.187"/><path d="M177.73 0H64.364v22.25h12.131v34.648h-.235L40.737 0H0v22.25h10.42v63.986H0v22.154h51.852V86.236H39.716V48.202h.167l36.921 60.188h29.001V22.25h25.493v63.986H120.65v22.154h41.98V69.148h15.097c29.061 0 41.273-11.443 41.273-34.563C219.003 11.441 206.792 0 177.73 0m-5.994 46.915h-9.103V22.25h9.103c10.731 0 15.083 4.336 15.083 12.733 0 6.929-5.219 11.932-15.083 11.932"/></svg>