<svg baseProfile="tiny" xmlns="http://www.w3.org/2000/svg" width="347" height="206.556" overflow="scroll">
<g>
<path d="M56.962 115.62L76.787 3.501h20.849l15.504 67.658c.029-3.42-.019-5.353.02-6.097.187-3.569.501-6.691.933-9.219l9.193-52.342h22.649L126.109 115.62H105.41L89.756 47.962c-.304 5.799-.711 10.706-1.356 14.424l-9.39 53.234H56.962zM195.759 28.779c-5.001-4.758-9.976-7.137-14.775-7.137-7.2 0-12.722 5.204-13.12 12.788-.288 5.502 1.648 8.624 9.113 15.019 7.314 6.394 11.857 11.301 13.778 14.721 2.071 3.42 2.879 8.03 2.583 13.68-.553 10.558-4.486 19.777-11.649 27.658-7.163 7.881-16.073 11.896-26.722 11.896-7.2 0-13.248-1.933-18.303-5.651l3.806-21.116c5.189 4.015 10.188 5.948 15.137 5.948 8.55 0 15.161-5.948 15.606-14.424.132-2.528-.366-4.461-1.489-5.948-1.122-1.487-4.131-4.163-9.021-8.178-5.901-4.758-10.024-9.07-12.364-13.085-2.189-4.015-3.124-9.071-2.813-15.019.553-10.558 4.171-19.48 10.86-26.915 6.847-7.584 14.992-11.302 24.591-11.302 6.45 0 12.656 1.785 18.611 5.502l-3.829 21.563zM202.759 24.021l3.625-20.52h56.698l-3.625 20.52h-17.399l-16.201 91.599h-22.049l16.201-91.599h-17.25zM268.279 8.079c0-4.719 3.561-8.079 7.959-8.079 4.359 0 7.919 3.359 7.919 8.079s-3.56 8.079-7.919 8.079c-4.398-.001-7.959-3.36-7.959-8.079zm13.678 0c0-3.719-2.359-6.119-5.719-6.119s-5.759 2.4-5.759 6.119 2.399 6.119 5.759 6.119 5.719-2.4 5.719-6.119zm-8.958-4h3.56c1.84 0 3.239.84 3.239 2.64 0 .92-.479 1.72-1.399 2.16l1.639 3.08h-2.398l-1.2-2.399h-1.159v2.399h-2.28v-7.88zm3.12 3.879c.799 0 1.199-.52 1.199-1.12 0-.56-.4-1.04-1.199-1.04h-.84v2.16h.84z"/>
<path d="M62.28 132.079c0-4.719 3.56-8.079 7.958-8.079 4.359 0 7.919 3.359 7.919 8.079s-3.56 8.079-7.919 8.079c-4.399-.001-7.958-3.36-7.958-8.079zm13.678 0c0-3.719-2.36-6.119-5.719-6.119s-5.759 2.4-5.759 6.119 2.399 6.119 5.759 6.119 5.719-2.4 5.719-6.119zm-8.959-4h3.56c1.839 0 3.239.84 3.239 2.64 0 .92-.48 1.72-1.4 2.16l1.64 3.08h-2.399l-1.2-2.399h-1.16v2.399h-2.28v-7.88zm3.12 3.879c.8 0 1.2-.52 1.2-1.12 0-.56-.4-1.04-1.2-1.04h-.84v2.16h.84z"/>
<path d="M38.277 206.496c-10.339-.488-18.798-3.847-25.412-10.087-1.262-1.192-4.27-4.766-5.279-6.273-2.682-4.005-4.506-7.903-5.722-12.227-3.743-13.312-1.816-30.78 5.51-49.951 6.273-16.413 15.951-32.691 32.838-55.236 2.487-3.317 9.895-13.02 9.943-13.02.018 0-.386.83-.894 1.842-4.391 8.733-8.147 19.02-10.194 27.925-3.288 14.289-2.891 26.552 1.161 36.061 2.795 6.551 7.588 12.225 12.977 15.362 9.434 5.489 23.247 5.943 40.116 1.329 1.161-.32 58.71-18.46 127.887-40.314C290.383 80.05 346.991 62.183 347 62.198c.019.019-160.718 81.694-244.159 124.066-13.214 6.708-16.748 8.403-22.96 10.993-15.88 6.621-30.105 9.781-41.604 9.239z"/>
</g></svg>