<svg baseProfile="tiny" xmlns="http://www.w3.org/2000/svg" width="85.039" height="85.039" overflow="scroll"><path d="M0 0v42.755h.006c.127 23.374 19.11 42.284 42.514 42.284 23.404 0 42.386-18.91 42.514-42.284L85.039 0H0zm59.559 36.387l-8.17 17.102v18.91H36.038V53.49l-7.302-15.371-8.612 3.822-4.527-10.494 8.234-3.654-1.841-3.875-8.828 3.527-4.311-10.584 22.491-8.987 3.546 8.705 8.888 19.112 2.925-6.351c-1.346-2.203-2.135-4.776-2.135-7.539 0-8.063 6.6-14.599 14.741-14.599s14.741 6.536 14.741 14.599c-.001 7.979-6.466 14.452-14.489 14.586z"/></svg>