<svg height="300" width="300" xmlns="http://www.w3.org/2000/svg" viewBox="0 0 96 96"><path d="M35.968 49.68C36.384 50.107 40.44 52 48 52c7.564 0 11.616-1.893 12.032-2.676C59.616 48.893 55.564 47 48 47c-7.56 0-11.616 1.893-12.032 2.68z"/><path d="M48 3C31.112 3 22 16.4 22 29v24c0 4.964 8.668 26 26 26s26-21.036 26-26V29c0-12.6-9.111-26-26-26zm10 26c2.212 0 4 1.788 4 4s-1.788 4-4 4-4-1.788-4-4 1.788-4 4-4zm-20 0c2.212 0 4 1.788 4 4s-1.788 4-4 4-4-1.788-4-4 1.788-4 4-4zm10 27c-7.964 0-16-2.008-16-6.5S40.036 43 48 43s16 2.008 16 6.5S55.964 56 48 56z"/><path d="M73.848 65.328C69.088 73.889 60.316 83 48 83c-12.316 0-21.084-9.111-25.848-17.672C11.008 67.124 4 76.784 4 91c0 1.1.896 2 2 2h84c1.1 0 2-.9 2-2 0-14.216-7.008-23.876-18.152-25.672z"/></svg>