<svg version="1.1" baseProfile="tiny" xmlns="http://www.w3.org/2000/svg" width="159.994px" height="124.825px" viewBox="0 0 159.994 124.825" overflow="scroll" xml:space="preserve">
<g> <!-- #231f20 -->
<path d="M159.994,17.755L122.28,8.492c-0.523,10.519-3.054,25.618-6.744,35.509C115.627,18.085,94.866-0.042,69.76,0 C41.839,0,19.577,23.597,24.886,52.721c-4.494-6.81-10.937-21.665-8.271-42.229L0.256,15.595 c-2.897,36.227,18.641,83.974,74.328,84.022C123.785,99.616,156.989,61.367,159.994,17.755z M69.825,74.647 c-16.634,0-30.128-13.323-30.128-29.726c0-16.409,13.494-29.731,30.128-29.731c16.683,0,30.171,13.323,30.171,29.731 C99.997,61.324,86.508,74.647,69.825,74.647z"/>
<polygon points="107.334,103.436 128.754,124.825 149.991,124.825 128.544,103.436"/>
<polygon points="78.636,103.436 100.11,124.825 121.347,124.825 99.905,103.436"/>
<polygon points="31.01,124.825 52.273,124.825 73.715,103.436 52.457,103.436"/>
<polygon points="23.818,103.436 2.349,124.825 23.607,124.825 45.049,103.436"/>
</g>
</svg>
