<svg baseProfile="tiny" xmlns="http://www.w3.org/2000/svg" width="1218.8" height="179.857" overflow="scroll"><path  d="M77.998 68.915c-7.072-3.591-14.735-6.081-22.257-8.707-9.888-3.453-20.095-6.049-28.246-13.261-13.259-11.732-9.514-32.09 7.275-37.76 11.819-3.991 22.786-1.2 31.208 7.628 7.278 7.627 13.191 16.557 20.133 25.457 1.209-.381 3.349-1.055 5.879-1.852-3.274-13.497-6.43-26.508-9.784-40.337-9.292 6.454-18.327 4.699-27.407 1.599-.936-.32-1.961-.369-2.936-.585C34.732-2.692 17.335 4.581 8.757 19.125-.06 34.073 1.898 54.23 13.426 67.051c8.422 9.366 19.554 14.019 31.029 18.334 10.225 3.844 20.89 7.288 30.058 12.999 15.448 9.623 10.495 30.76-.918 37.53-12.234 7.256-24.973 6.715-37.165.259-11.673-6.182-19.35-16.608-26.025-27.709-3.54-5.887-3.432-5.952-10.405-2.906 3.213 13.875 6.454 27.867 9.749 42.093 1.326-.355 2.222-.389 2.88-.802 7.255-4.544 14.578-4.216 22.439-1.327 9.68 3.558 19.75 4.276 30.01 2.335 18.522-3.504 31.874-16.472 35.207-33.084 4.508-22.471-8.051-38.631-22.287-45.858zM203.162 123.677c-.077-1.664-.054-3.333-.054-5-.004-21.837-.003-43.675-.003-65.513V47.49c-1.72.125-2.892.033-3.966.315-7.722 2.03-15.378 4.336-23.152 6.132-3.844.888-5.041 2.73-3.904 6.675 8.79 1.629 10.411 3.105 10.613 12.186.328 14.662-.1 29.342.33 43.999.157 5.355-1.764 8.96-5.827 11.823-7.946 5.599-16.699 6.789-25.607 3.259-8.687-3.442-8.371-11.535-8.382-19.124-.027-19.003-.006-38.007-.005-57.011v-8.248c-1.656.136-2.818.054-3.876.346-7.056 1.947-14.045 4.156-21.148 5.905-4.159 1.024-5.643 2.95-3.974 6.959 7.269 1.178 8.212 2.226 8.556 9.741.129 2.829.074 5.666.114 8.499.207 14.494-.01 29.011.759 43.475.64 12.039 6.781 20.881 18.665 24.594 12.441 3.886 23.77 1.457 33.296-7.617 3.066-2.921 5.552-6.45 8.464-9.892 1.188 4.937 2.209 9.585 3.446 14.175.88 3.264 2.853 4.557 6.355 3.259 4.834-1.791 9.714-3.52 14.688-4.846 3.856-1.029 4.69-3.138 3.533-6.581-6.878-2.169-8.573-4.402-8.921-11.836zM479.469 50.69c-2.467-4.054-7.441-6.616-12.044-4.86-4.181 1.595-8.445 4.033-11.537 7.206-6.437 6.603-9.495 15.133-11.245 24.119-.345 1.769-.945 3.489-1.427 5.231-.51-.079-1.019-.159-1.529-.238-.122-1.718-.084-3.464-.391-5.148-1.603-8.8-3.238-17.595-4.98-26.369-.788-3.967-2.939-5.006-6.828-3.233-5.292 2.413-10.733 4.537-16.222 6.466-3.616 1.271-4.671 3.284-3.241 6.721 10.436 1.14 13.129 3.723 14.734 14.486.514 3.442.799 6.95.822 10.43.094 14.164.048 28.328.049 42.493.001 8.323-.003 8.319-8.251 10.072-.786.167-1.554.421-2.443.666v6.091c13.721 0 27.177.054 40.631-.123.883-.012 2.45-1.796 2.439-2.741-.016-1.25-.991-3.05-2.067-3.591-1.549-.779-3.572-.904-5.373-.831-3.878.157-5.281-1.436-5.17-5.337.228-7.992-.123-16.001.115-23.993.368-12.348 1.594-24.581 6.312-36.199 1.662-4.095 3.285-6.582 8.741-4.355 6.198 2.529 12.545 1.407 17.385-3.923 3.059-3.368 3.668-9.511 1.52-13.04zM956.038 137.774c-5.76.316-6.283-2.772-6.254-7.436.114-18.327.141-36.661-.254-54.982-.304-14.1-8.123-25.361-19.876-28.094-15.445-3.591-24.841.354-33.25 12.758-1.152 1.7-2.366 3.358-4.259 6.036-.645-3.107-.862-4.867-1.386-6.53-1.287-4.086-2.671-8.143-4.102-12.182-1.005-2.838-2.889-3.093-5.536-1.999-5.843 2.414-11.727 4.755-17.697 6.827-3.734 1.296-5.121 3.312-3.567 7.038 8.424.638 11.911 4.002 12.753 12.285.151 1.488.162 2.995.163 4.494.01 18.497-.093 36.995.085 55.49.039 4.067-.79 6.355-5.379 6.16-1.873-.08-3.782.659-5.542 1v5.811h41.067v-5.775c-1.527-.361-2.827-.984-4.086-.91-5.209.306-6.207-2.336-6.143-7.027.241-17.827.078-35.659.13-53.489.006-1.966-.065-4.164.737-5.856 3.241-6.836 13.268-11.486 21.729-10.408 7.298.93 12.279 6.181 13.878 14.901.477 2.602.676 5.288.687 7.937.063 14.997.031 29.995.032 44.992 0 7.467.024 7.581-7.105 8.99-2.684.531-4.114 1.881-3.249 4.338.418 1.187 2.391 2.544 3.697 2.583 7.992.236 15.994.116 23.992.115h12.503c1.502-4.577.617-7.308-3.768-7.067zM845.259 137.751c-5.045.101-5.929-2.342-5.876-6.808.213-17.828.169-35.66.044-53.49-.076-10.855-3.359-20.426-12.78-26.79-12.678-8.564-29.079-5.579-38.724 6.836-1.946 2.505-3.776 5.101-6.475 8.76-.468-3.257-.507-5.086-1.018-6.771-1.245-4.102-2.607-8.175-4.123-12.184-.888-2.35-2.49-3.157-5.143-2.057-6.147 2.549-12.351 4.99-18.646 7.139-4.032 1.376-4.348 3.786-3.2 7.157 7.456-.246 11.063 2.489 12.466 9.537.484 2.429.656 4.956.664 7.439.054 16.664.039 33.328.011 49.991-.005 2.991.838 6.655-.57 8.769-1.229 1.844-5.225 1.658-7.711 2.93-1.212.621-2.337 2.489-2.416 3.856-.05.861 1.896 2.626 2.968 2.643 11.828.196 23.662.203 35.49.001.997-.017 2.67-1.859 2.748-2.944.082-1.151-1.153-2.675-2.216-3.537-.79-.64-2.24-.713-3.371-.642-4.088.257-4.976-1.828-4.946-5.519.138-17.496.057-34.993.053-52.49-.002-8.6 3.85-14.274 11.875-17.489 10.583-4.239 22.082 1.147 24.119 11.493.766 3.892 1.2 7.909 1.236 11.875.141 15.496-.067 30.996.153 46.49.058 4.086-1.216 5.768-5.304 5.691-1.891-.036-3.796.672-5.566 1.017v6.178c13.084 0 25.557-.039 38.029.03 2.8.016 3.276-1.448 3.255-3.797-.032-3.706-3.069-3.354-5.026-3.314zM701.532 46.586c-19.706-2.245-34.705 5.784-44.058 22.78-11.435 20.782-8.349 41.507 3.647 61.086 14.816 24.182 48.958 23.95 65.947 2.417 8.378-10.619 12.15-22.743 12.897-36.218-.942-5.725-1.422-11.573-2.911-17.152-4.799-17.982-18.95-31.025-35.522-32.913zm9.37 82.199c-.623 1.547-1.32 2.958-2.091 4.232-3.341 5.517-8.063 8.437-14.043 8.452-7.458.02-13.631-4.059-15.807-12.77-2.72-10.891-3.974-22.148-5.916-33.571 1.915-9.899 3.13-19.827 5.877-29.31.473-1.634 1.089-3.107 1.826-4.422 3.194-5.696 8.674-8.406 14.771-8.204 7.733.257 14.553 4.918 16.479 13.58 2.148 9.661 3.315 19.687 3.552 29.587.261 10.939-.443 21.98-4.648 32.426zM612.191 66.806c-7.898-3.466-16.299-5.788-24.48-8.606-8.21-2.828-16.34-5.753-22.787-11.979-12.438-12.013-8.268-31.617 8.118-37.05 12.095-4.01 23.015-.894 31.593 8.022 5.941 6.175 10.946 13.407 15.482 20.718 2.855 4.601 5.401 5.128 9.916 2.011-3.104-12.843-6.252-25.866-9.65-39.922-8.966 6.275-17.522 5.052-26.175 2.024-1.405-.492-2.914-.685-4.377-1.01-15.753-3.507-32.477 2.894-41.369 15.831-9.037 13.149-9.336 32.166-.617 45.293 8.315 12.518 21.138 18.266 34.629 23.157 9.362 3.394 18.888 6.632 27.687 11.2 8.307 4.313 13.072 11.652 11.916 21.785-1.179 10.341-6.595 17.678-16.359 20.647-13.717 4.172-27.25 2.667-37.843-7.542-7.695-7.416-13.916-16.423-20.338-25.059-1.812-2.436-2.975-3.366-5.911-2.47-3.39 1.035-3.256 3.119-2.56 5.77.675 2.571 1.2 5.181 1.807 7.77 2.343 9.994 4.693 19.986 7.009 29.841.857.041 1.21.147 1.5.054.787-.253 1.597-.504 2.31-.909 6.508-3.701 13.077-4.042 20.141-1.318 4.305 1.66 8.961 2.81 13.55 3.262 18.473 1.822 35.266-2.11 46.422-18.13 15.962-22.919 6.849-51.777-19.614-63.39zM1197.438 131.281c-8.517-2.05-17.405-2.58-26.138-3.699-6.268-.804-12.607-1.18-18.798-2.361-1.523-.29-3.711-3.035-3.629-4.545.163-3.014 8.743-7.685 11.907-7.425 5.288.434 10.617 1.063 15.893.823 17.147-.781 30.565-13.136 32.627-29.61 1.856-14.825-7.666-28.433-23.722-33.955-.961-.331-1.833-.921-3.106-1.577 3.37-2.31 6.333-4.141 9.064-6.271 2.527-1.971 4.35-2.463 6.564.626 1.267 1.768 3.494 3.154 5.579 3.967 4.255 1.658 8.56 1.505 12.067-1.911 3.201-3.118 3.793-7.005 2.211-11.065-1.829-4.697-5.877-6.406-10.463-6.056-3.399.26-7.173.916-9.969 2.681-6.299 3.974-11.98 8.915-18.157 13.1-2.112 1.431-4.996 2.601-7.46 2.484-11.001-.522-20.673 2.434-29.211 9.417-14.768 12.077-18.047 41.385 5.504 51.446 1.192.509 2.271 1.282 4.168 2.372-1.428 1.043-2.186 1.638-2.983 2.173-5.929 3.984-12.36 7.393-17.684 12.065-7.976 6.999-6.225 13.193 3.912 15.893 3.596.958 7.302 1.503 12.285 2.503-2.352 1.217-3.486 1.754-4.573 2.374-5.461 3.114-11.401 5.637-16.24 9.529-6.422 5.165-5.622 13.001 1.188 17.679 2.279 1.565 5.002 2.843 7.695 3.377 6.837 1.355 13.738 2.638 20.674 3.185 14.141 1.115 28.312 1.459 42.077-2.998 7.468-2.418 13.537-6.547 15.903-14.525 4.208-14.189-2.366-26.129-17.185-29.696zm-40.827-68.331c1.747-5.833 5.945-9.521 12.336-10.054 6.66-.556 12.164 1.943 14.782 7.996 5.826 13.464 5.652 27.204-.666 40.496-2.681 5.64-7.929 7.718-14.157 7.29-6.114-.42-10.625-3.391-12.415-9.141-1.804-5.795-2.659-11.885-3.922-17.806 1.365-6.534 2.249-12.794 4.042-18.781zm35.096 106.84c-6.578 2.077-13.482 3.12-19.38 4.414h-.001-.001c-8.535-1.312-16.031-1.941-23.252-3.704-9.813-2.395-12.364-12.374-5.475-19.748 3.533-3.782 7.38-6.24 12.614-6.053.748.027 1.524.107 2.332.245 8.329 1.427 16.821 1.88 25.221 2.934 2.445.307 4.862 1.089 7.203 1.907 4.467 1.561 7.254 4.6 7.565 9.512.326 5.18-2.25 9.048-6.826 10.493zM1117.241 134.207c-2.932.287-6.693 1.798-8.571.527-2.015-1.364-3.077-5.326-3.14-8.185-.308-13.989-.517-28-.049-41.98.538-16.059-6.606-26.69-21.188-32.649-3.842-1.57-7.768-3.492-11.798-3.924-7.041-.754-14.289-1.267-21.269-.405-6.719.829-10.108 7.515-8.219 13.539 1.753 5.591 8.101 8.381 14.355 6.226 4.81-1.658 7.875-5.133 8.781-10.028.748-4.041 2.651-4.335 5.974-3.144 9.418 3.374 13.673 10.787 13.747 23.518.021 3.516-.885 5.543-4.465 6.523-3.839 1.052-7.546 2.608-11.27 4.047-11.189 4.323-21.511 9.88-28.32 20.315-10.909 16.719-2.107 38.386 16.355 39.762 10.496.782 18.574-4.167 24.875-12.296.911-1.175 1.807-2.361 3.071-4.014 3.275 12.545 7.218 16.472 15.822 16.435 6.619-.029 11.781-2.968 16.046-7.88 2.318-2.672 3.269-5.059-.737-6.387zm-31.539-8.034c-.094 5.052-4.797 6.489-8.362 8.217-4.641 2.25-9.401 1.722-13.557-1.657-6.811-5.539-8.904-15.382-5.087-24 5.137-11.599 15.632-15.95 27.08-20.351 0 13.266.154 25.532-.074 37.791zM1026.585 128.72zM1026.585 128.72c-.599.467-1.048.713-1.36 1.077-4.152 4.846-9.221 7.174-15.542 5.137-6.448-2.078-7.448-7.705-7.528-13.309-.272-18.98-.276-37.965-.353-56.948-.006-1.454.216-2.91.365-4.773 6.149 0 11.978-.319 17.753.101 4.644.338 6.017-1.485 5.359-5.696-.195-1.246-.338-2.5-.49-3.637-.932-.183-1.418-.359-1.907-.363-4.663-.043-9.326-.07-13.989-.077-7.089-.009-7.095-.001-7.099-6.933-.006-10.285-.002-20.569-.002-31.88-5.691 2.916-10.441 5.564-15.376 7.805-3.506 1.592-4.788 3.798-4.61 7.717.345 7.573.101 15.172.101 22.976-4.798.243-8.857.449-12.887.654v9.198h12.891v5.617c-.001 18.321-.134 36.643.086 54.961.057 4.772.745 9.657 1.982 14.264 1.859 6.922 6.325 11.58 13.806 12.688 11.615 1.72 21.213-2.129 29.319-10.389 3.022-3.077 2.713-5.6-.519-8.19zM398.597 120.551c-2.817 2.575-5.407 5.156-8.218 7.47-9.495 7.817-21.618 7.975-31.187.297-8.989-7.212-12.453-17.302-14.438-28.384 1.385-.582 2.542-1.23 3.784-1.565 16.541-4.463 33.087-8.907 49.65-13.287 2.893-.765 5.142-1.359 4.639-5.423-1.803-14.584-13.501-28.793-27.018-32.287-15.066-3.894-30.568 2.258-39.745 15.418-8.977 12.873-11.805 27.414-11.59 42.635.146 10.342 3.215 20.083 9.569 28.421 16.791 22.033 51.142 19.282 66.561-5.232 3.231-5.137 3.135-5.454-2.007-8.063zm-44.315-63.609c6.195-4.336 14.049-5.105 19.508-1.033 5.902 4.402 9.315 13.889 6.16 20.021-1.585 3.08-4.945 6.035-8.187 7.324-8.932 3.552-18.226 6.196-27.75 9.322-2.502-12.682 2.541-30.224 10.269-35.634zM309.791 66.544c-3.736-10.449-10.869-18.362-22.784-20.121-13.025-1.923-22.129 3.946-28.748 14.673-.648 1.049-1.605 1.907-2.913 3.429-.51-1.791-.837-2.822-1.095-3.87-.913-3.697-1.757-7.412-2.716-11.097-.92-3.537-2.637-4.937-6.446-2.999-4.884 2.485-9.935 4.72-15.092 6.567-4.219 1.511-5.301 3.876-3.784 7.784 6.967 1.096 8.413 2.496 9.577 9.508.406 2.447.704 4.946.708 7.421.049 29.48-.117 58.962.175 88.439.051 5.125-1.912 6.984-6.376 7.083-4.635.103-5.851 2.155-4.235 6.496h40.727c1.629-4.634.044-6.486-4.448-6.542-4.34-.055-6.347-1.971-6.077-6.832.451-8.104.123-16.251.123-25.175 1.826 1.117 3.217 1.94 4.581 2.807 10.018 6.37 20.333 6.452 30.047.011 4.865-3.226 9.498-7.607 12.634-12.495 13.151-20.494 14.176-42.618 6.142-65.087zm-15.583 46.686c-.821 4.712-1.777 9.659-3.373 14.396-5.292 15.697-19.359 18.801-31.112 7.204-.464-.458-.892-1.006-1.274-1.613-.573-.911-1.043-1.952-1.373-3.014s-.521-2.143-.538-3.133c-.035-2.122-.059-4.244-.075-6.367s-.023-4.245-.026-6.368v-.009c-.015-12.733.151-25.469-.193-38.193-.048-1.766.15-3.331.554-4.73 1.214-4.195 4.29-6.891 8.19-9.039.311-.171.624-.33.938-.476 1.375-.639 2.775-1.028 4.182-1.198 3.304-.4 6.642.449 9.772 2.344.101.061.204.117.305.181 7.255 4.567 10.648 11.842 12.479 19.733 1.493 6.434 1.995 13.097 3.164 21.245-.576 2.812-1.069 5.873-1.62 9.037z"/></svg>