<svg baseProfile="tiny" xmlns="http://www.w3.org/2000/svg" width="627.837" height="85.311" overflow="scroll"><path d="M138.465.024c-6.065.049-12.13.068-18.194-.012-1.354-.018-1.68.4-1.671 1.789.058 9.158-.001 18.316.061 27.474.01 1.489-.402 1.917-1.8 1.905-7.372-.064-14.746-.088-22.118.013-1.716.024-2.045-.597-2.032-2.253.07-8.969.001-17.94.064-26.909.011-1.499-.266-2.053-1.824-2.026C85.066.108 79.178.1 73.293.009c-1.489-.023-1.877.423-1.87 1.982.058 13.361.033 26.721.033 40.082 0 13.298.03 26.596-.037 39.894-.008 1.678.435 2.097 1.994 2.071 5.826-.1 11.654-.093 17.48-.003 1.484.023 1.893-.422 1.883-1.982-.064-9.785-.002-19.571-.064-29.356-.01-1.504.419-1.885 1.804-1.872 7.372.068 14.746.09 22.118-.012 1.68-.023 2.045.522 2.032 2.202-.073 9.722-.028 19.445-.047 29.168-.002 1.092-.041 1.872 1.433 1.852 6.183-.086 12.367-.062 18.551-.012 1.122.009 1.404-.409 1.404-1.524-.022-26.973-.025-53.945.007-80.918.001-1.282-.424-1.567-1.549-1.557zM348.014 65.533c-9.512.064-19.025.008-28.537.063-1.283.007-1.753-.265-1.715-1.735.103-3.948.118-7.905-.004-11.852-.05-1.631.461-1.935 1.895-1.922 8.323.073 16.647-.002 24.97.072 1.429.013 1.786-.425 1.76-1.885-.085-4.765-.101-9.535.006-14.299.037-1.632-.345-2.114-1.944-2.097-8.323.089-16.647.016-24.97.068-1.278.008-1.766-.278-1.714-1.752.115-3.257.123-6.525-.001-9.781-.061-1.59.396-1.963 1.868-1.951 8.977.075 17.955.012 26.932.066 1.254.008 1.607-.367 1.589-1.682-.069-5.017-.077-10.036.004-15.052.023-1.396-.32-1.786-1.669-1.781-16.112.051-32.224.054-48.335-.003-1.461-.005-1.749.489-1.744 1.915.048 13.359.028 26.719.028 40.078 0 13.359.015 26.719-.023 40.078-.004 1.367.194 1.96 1.714 1.955 16.647-.062 33.294-.062 49.941 0 1.512.006 1.751-.572 1.734-1.952-.061-4.891-.076-9.785.008-14.676.024-1.483-.391-1.884-1.793-1.875zM59.966.833c-9.692.055-19.384.03-29.076.03-9.751 0-19.503.021-29.254-.026C.433.83-.017 1.123.001 2.481.069 7.686.058 12.894.007 18.1c-.012 1.239.374 1.583 1.533 1.57 5.47-.06 10.942.055 16.41-.073 1.776-.042 2.26.408 2.253 2.345-.077 20.01-.027 40.019-.084 60.029-.005 1.665.397 2.098 1.969 2.069 5.706-.106 11.416-.099 17.123-.004 1.574.026 2.088-.34 2.082-2.126-.066-20.135-.029-40.271-.07-60.406-.003-1.414.262-1.925 1.728-1.9 5.707.098 11.416.003 17.123.069 1.241.014 1.621-.347 1.603-1.674-.068-5.143-.082-10.288.007-15.43.026-1.466-.434-1.744-1.718-1.736zM284.265 65.157c-8.858.083-17.719-.028-26.576.095-1.882.026-2.213-.583-2.208-2.406.06-20.197.013-40.394.079-60.591.006-1.843-.471-2.287-2.172-2.253-5.706.117-11.416.101-17.122.007-1.571-.026-2.097.339-2.087 2.125.078 13.234.042 26.469.042 39.704 0 13.423.017 26.846-.026 40.269-.004 1.404.263 1.933 1.74 1.928 16.172-.059 32.344-.058 48.517-.001 1.416.005 1.651-.5 1.633-1.832-.068-5.017-.085-10.037.008-15.053.029-1.525-.299-2.007-1.828-1.992zM403.064 73.526c-1.662-4.434-3.441-8.806-6.244-12.617-3.2-4.35-7.384-7.186-12.705-9.004 3.524-1.24 6.059-3.264 8.212-5.847 4.504-5.403 7.28-11.968 10.985-17.926-1.034-.673-2.082-.695-3.062-.815-4.626-.563-9.74.336-12.272 6.347-.909 2.158-2.22 4.147-3.484 6.115-2.58 4.017-5.842 7.032-10.584 7.94-1.495.286-1.916.041-1.909-1.629.06-12.922.012-25.845.051-38.767.008-2.429-1.006-4.044-2.979-5.109-2.045-1.104-4.254-1.497-6.512-1.765-1.318-.156-1.571.373-1.569 1.65.031 25.218.032 50.435.01 75.653-.002 2.493 1.07 4.137 3.117 5.222 1.893 1.003 3.943 1.295 5.993 1.686 1.625.31 1.98-.207 1.961-1.89-.087-7.903.021-15.808-.082-23.711-.024-1.867.479-2.143 2.069-1.767 2.92.689 5.738 1.575 8.283 3.293 4.033 2.722 6.415 6.763 8.242 11.283 1.255 3.105 2.191 6.368 4 9.206 1.668 2.616 4.023 3.874 6.985 3.653 1.532-.114 3.042-.534 4.564-.801.932-.164.94-.595.539-1.407-1.429-2.896-2.474-5.965-3.609-8.993zM455.057 28.674c-1.884-.852-3.863-1.166-5.866-1.466-1.314-.197-1.588.336-1.562 1.626.076 3.824.027 7.651.027 11.477 0 10.788.005 21.575-.011 32.363-.001.747.315 1.657-.822 1.971-4.932 1.362-9.911 2.16-14.979 1.09-4.242-.896-6.287-3.42-6.735-8.007-.085-.871-.102-1.752-.102-2.629-.007-9.784-.004-19.568-.005-29.352 0-4.979-1.111-6.542-5.686-7.783-1.316-.357-2.684-.496-4.027-.744-.909-.168-1.256.169-1.253 1.191.043 13.735-.076 27.472.128 41.204.098 6.602 3.472 11.222 9.292 13.619 6.232 2.567 12.652 2.573 19.104.98 4.853-1.199 9.715-2.057 14.516.1 1.514.68 1.609.111 1.602-1.266-.044-8.153-.022-16.307-.022-24.46 0-8.028-.048-16.056.026-24.084.026-2.898-1.169-4.72-3.625-5.83zM619.493 27.111c-4.795-1.139-9.447-.246-14.082.974-3.65.96-7.289 1.283-10.818-.411-1.413-.678-1.751-.416-1.746 1.227.047 16.245.053 32.491.003 48.737-.008 2.599 1.07 4.261 3.175 5.37 2.005 1.056 4.178 1.353 6.357 1.697 1.245.196 1.518-.291 1.505-1.499-.049-4.704-.019-9.408-.019-14.113 0-9.848.042-19.696-.042-29.543-.014-1.603.497-2.172 1.889-2.478 2.922-.644 5.836-1.137 8.837-.866 5.487.495 8.395 3.19 9.568 9.234.758-1.201 1.363-2.049 1.858-2.964 4.004-7.395 1.408-13.49-6.485-15.365zM498.876 27.11c-4.795-1.14-9.446-.245-14.081.975-3.65.96-7.289 1.283-10.818-.411-1.425-.684-1.748-.398-1.744 1.231.046 16.244.053 32.488.003 48.732-.008 2.599 1.07 4.262 3.174 5.37 2.004 1.055 4.178 1.352 6.356 1.696 1.249.197 1.514-.299 1.503-1.502-.046-5.08-.019-10.16-.019-15.24 0-9.471.043-18.942-.042-28.411-.014-1.603.498-2.174 1.89-2.479 2.863-.626 5.718-1.129 8.658-.88 5.634.477 8.522 3.108 9.755 9.237.725-1.142 1.289-1.941 1.764-2.795 4.136-7.419 1.553-13.633-6.399-15.523zM525.037 33.994c.002-2.397-1.043-4.032-3.029-5.089-1.998-1.063-4.157-1.398-6.343-1.706-1.391-.195-1.676.326-1.666 1.712.06 8.149.03 16.299.03 24.449 0 8.15.038 16.3-.023 24.449-.019 2.53 1.09 4.109 3.13 5.186 2.006 1.059 4.171 1.375 6.351 1.697 1.13.167 1.57-.101 1.567-1.424-.037-16.424-.03-32.849-.017-49.274zM517.031 17.808c1.122.071 2.252.013 3.378.013v.011c1.008 0 2.023-.081 3.021.021 1.225.125 1.506-.44 1.462-1.614-.074-1.998-.002-4.001-.025-6.002-.025-2.115-1.112-3.408-3.134-3.507-2.189-.107-4.386.007-6.578-.055-1.02-.029-1.152.506-1.137 1.386.036 2.125-.002 4.252.015 6.378.017 2.102 1.012 3.243 2.998 3.369zM223.586 82.277c-7.638-26.928-15.24-53.868-22.818-80.814-.305-1.086-.762-1.46-1.844-1.443-4.22.066-8.441.027-12.662.027-4.28 0-8.561.039-12.841-.027-1.089-.017-1.535.372-1.833 1.46-7.399 27.003-14.821 53.999-22.282 80.982-.369 1.333-.083 1.568 1.129 1.559 6.361-.049 12.722-.046 19.083 0 1.073.008 1.541-.295 1.797-1.468 1.185-5.43 2.522-10.822 3.707-16.252.284-1.3.677-1.852 2.065-1.83 5.765.095 11.533.084 17.299.005 1.252-.017 1.747.4 2.058 1.65 1.356 5.449 2.85 10.861 4.194 16.313.295 1.197.742 1.597 1.914 1.587 6.598-.057 13.198-.073 19.796.008 1.458.017 1.639-.344 1.238-1.757zm-31.458-34.345c-4.563.013-9.126.005-13.84.005 2.402-10.489 4.772-20.78 7.259-31.17.474 2.028.938 4.058 1.423 6.083 1.888 7.883 3.786 15.763 5.665 23.649.133.558.777 1.429-.507 1.433zM578.433 64.971c-.475 4.129-2.75 6.823-6.085 8.447-5.463 2.66-11.218 3.202-17.056 1.72-4.173-1.059-6.344-3.935-6.625-8.429-.133-2.124-.035-4.262-.087-6.393-.023-.971.197-1.145 1.112-.785 5.997 2.355 12.128 2.192 18.251.742 7.971-1.887 12.601-7.696 12.79-15.791.19-8.144-4.119-14.159-11.918-16.56-5.593-1.722-11.275-1.81-16.933-.55-9.639 2.148-14.292 8.329-14.297 18.711-.003 6.647-.005 13.294 0 19.941.007 8.594 3.817 14.376 11.492 17.269 6.199 2.336 12.567 2.48 18.982 1.261 4.028-.766 7.779-2.208 10.769-5.37 3.164-3.345 3.543-9.301-.395-14.213zm-29.837-18.854c.012-.272.031-1.025.083-1.776.355-5.075 2.654-7.807 7.384-8.615 3.336-.57 6.654-.491 9.765 1.115 3.072 1.586 4.022 4.444 3.869 7.815-.145 3.185-1.79 5.255-4.621 6.209-4.366 1.472-8.794 1.233-13.217.301-3.313-.697-3.309-.717-3.263-5.049z"/></svg>
