<svg version="1.2" baseProfile="tiny" xmlns="http://www.w3.org/2000/svg" x="0px" y="0px" width="481.89px" height="56.69px" viewBox="0 0 481.89 56.69">
<g>
<path d="M290.033,26.686c-2.14-1.652-4.645-2.851-7.046-4.14c-2.368-1.27-4.909-2.238-7.203-3.621 c-2.666-1.607-3.894-4.167-3.623-7.303c0.31-3.581,2.726-6.081,6.399-6.773c4.107-0.774,7.925,0.742,9.464,3.882 c0.676,1.379,1.096,2.881,1.673,4.311c0.329,0.817,0.416,2.072,1.672,1.849c1.308-0.232,0.821-1.49,0.85-2.322 c0.057-1.673-0.044-3.352-0.076-5.029c-0.053-2.788-0.197-2.986-2.928-3.663c-1.484-0.368-2.98-0.686-4.471-1.027 c-2.208,0-4.416,0-6.625,0c-0.831,0.253-1.665,0.494-2.492,0.759c-5.301,1.699-8.726,5.124-9.47,10.76 c-0.71,5.377,1.109,9.776,5.792,12.697c2.275,1.419,4.721,2.572,7.127,3.771c2.813,1.403,5.615,2.814,7.77,5.184 c4.039,4.444,2.622,11.502-2.805,14.07c-4.217,1.996-9.209,0.613-12.662-3.499c-1.888-2.248-2.98-4.869-3.729-7.676 c-0.121-0.452-0.663-0.791-1.01-1.182c-0.289,0.443-0.801,0.872-0.83,1.331c-0.168,2.729-0.254,5.465-0.307,8.199 c-0.029,1.497,0.625,2.577,2.07,3.217c3.988,1.768,8.147,2.673,12.496,2.335c6.451-0.502,11.323-3.442,13.919-9.577 C296.631,36.994,295.217,30.688,290.033,26.686z"/>
<path d="M74.742,5.699c0.566-0.029,1.157-0.103,1.674-0.312c0.295-0.12,0.675-0.583,0.638-0.837 c-0.051-0.355-0.393-0.791-0.726-0.95c-0.365-0.174-0.862-0.092-1.301-0.089c-2.381,0.019-4.762,0.061-7.143,0.067 c-1.192,0.003-2.391-0.144-3.571-0.043c-0.499,0.043-0.957,0.55-1.434,0.846c0.427,0.413,0.789,0.962,1.297,1.202 c0.576,0.273,1.284,0.263,1.932,0.388c0.948,0.182,1.415,0.781,1.201,1.71c-0.286,1.239-0.583,2.498-1.072,3.665 c-3.886,9.282-7.818,18.544-11.742,27.81c-0.193,0.455-0.447,0.884-0.718,1.412c-0.226-0.266-0.337-0.349-0.384-0.459 c-2.396-5.551-4.817-11.093-7.135-16.676c-0.263-0.633-0.171-1.62,0.141-2.252c2.034-4.114,4.199-8.163,6.268-12.26 c1.038-2.056,2.443-3.381,4.932-3.296c0.817,0.028,2.017-0.114,1.916-1.319c-0.101-1.194-1.261-0.848-2.038-0.862 c-3.22-0.062-6.441-0.077-9.662-0.105c-0.352-0.003-0.735-0.064-1.046,0.055c-0.291,0.111-0.694,0.415-0.706,0.652 c-0.016,0.318,0.228,0.73,0.487,0.957c0.243,0.213,0.646,0.256,0.987,0.343c2.322,0.59,2.773,1.32,1.821,3.462 c-1.468,3.306-3.055,6.56-4.601,9.832c-0.085,0.181-0.258,0.32-0.43,0.526c-0.171-0.2-0.319-0.312-0.386-0.461 c-1.471-3.258-3.004-6.489-4.373-9.79c-1.107-2.67-0.933-2.81,1.838-3.335c0.786-0.149,2.061-0.063,1.905-1.332 c-0.146-1.191-1.313-0.78-2.08-0.785c-4.767-0.035-9.533-0.025-14.3-0.026c-0.352,0-0.744-0.066-1.045,0.065 c-0.318,0.139-0.762,0.475-0.765,0.729c-0.005,0.355,0.283,0.788,0.57,1.05c0.236,0.215,0.654,0.317,0.992,0.317 c1.998,0.001,2.968,1.258,3.703,2.884c2.835,6.275,5.685,12.543,8.544,18.807c0.418,0.916,0.404,1.75-0.079,2.648 c-1.023,1.905-1.982,3.845-2.971,5.769c-0.902,1.753-1.81,3.503-2.897,5.605c-0.37-0.746-0.573-1.125-0.75-1.516 c-4.023-8.933-8.046-17.866-12.06-26.804c-0.705-1.569-1.431-3.133-2.038-4.741c-0.732-1.941-0.304-2.581,1.707-2.872 c0.478-0.069,0.979-0.132,1.407-0.331c0.262-0.122,0.552-0.491,0.563-0.76c0.012-0.281-0.228-0.703-0.478-0.835 c-0.365-0.193-0.84-0.26-1.264-0.246c-2.204,0.074-4.407,0.277-6.61,0.271c-3.084-0.009-6.17-0.215-9.255-0.205 C3.672,3.274,3.141,3.927,2.608,4.279C3.053,4.623,3.49,5.252,3.945,5.264c2.919,0.083,4.349,1.827,5.43,4.285 c6.151,13.977,12.363,27.928,18.572,41.88c0.378,0.85,0.649,2.174,1.807,1.939c0.676-0.137,1.321-1.168,1.694-1.936 c2.99-6.154,5.91-12.342,8.857-18.517c0.159-0.334,0.371-0.643,0.69-1.189c0.285,0.568,0.475,0.893,0.616,1.237 c0.787,1.919,1.562,3.842,2.343,5.764c1.826,4.498,3.626,9.006,5.515,13.478c0.237,0.561,0.895,1.175,1.452,1.284 c0.337,0.066,1.04-0.715,1.265-1.248c4.675-11.056,9.289-22.138,13.953-33.199c1.525-3.617,3.143-7.196,4.748-10.779 C71.622,6.617,72.936,5.79,74.742,5.699z"/>
<path d="M185.007,18.442c0.306-0.044,0.655,0.011,0.912-0.12c0.385-0.197,0.706-0.519,1.054-0.788 c-0.391-0.258-0.765-0.548-1.179-0.76c-0.175-0.089-0.434-0.013-0.655-0.013c-3.881,0.001-7.762-0.02-11.642,0.023 c-0.746,0.008-1.983-0.475-2.052,0.729c-0.062,1.079,1.159,0.79,1.879,0.907c2.146,0.348,2.801,1.055,2.816,3.237 c0.02,2.958,0.02,5.917,0.008,8.875c-0.007,1.693-0.241,1.943-1.89,1.952c-4.195,0.022-8.389,0.002-12.584,0.033 c-1.236,0.009-1.742-0.505-1.715-1.754c0.055-2.56,0.028-5.122,0.025-7.683c-0.004-3.893-0.007-3.893,3.817-4.75 c0.171-0.038,0.378-0.054,0.497-0.16c0.183-0.163,0.443-0.416,0.418-0.594c-0.036-0.256-0.256-0.616-0.477-0.688 c-0.403-0.13-0.865-0.113-1.301-0.103c-2.647,0.064-5.294,0.187-7.941,0.201c-1.586,0.008-3.173-0.197-4.76-0.194 c-0.35,0.001-0.699,0.478-1.048,0.736c0.307,0.259,0.589,0.564,0.932,0.761c0.211,0.121,0.516,0.079,0.779,0.109 c2.404,0.275,3.057,0.979,3.065,3.404c0.014,4.327,0.004,8.654,0.002,12.982c-0.002,4.416,0.019,8.831-0.011,13.246 c-0.014,1.963-0.697,2.673-2.645,2.964c-0.48,0.072-0.987,0.069-1.433,0.232c-0.275,0.101-0.682,0.516-0.636,0.676 c0.089,0.307,0.416,0.63,0.724,0.764c0.296,0.128,0.692,0.025,1.044,0.025c3.883-0.007,7.766-0.01,11.649-0.026 c0.741-0.003,1.863,0.441,1.997-0.627c0.147-1.172-1.081-0.88-1.781-0.991c-2.154-0.341-2.87-1.057-2.884-3.206 c-0.026-3.974,0.013-7.948-0.014-11.922c-0.008-1.104,0.393-1.607,1.547-1.599c4.371,0.032,8.743,0.028,13.114,0.004 c1.153-0.006,1.538,0.516,1.528,1.622c-0.039,4.106-0.01,8.213-0.038,12.319c-0.011,1.558-0.703,2.355-2.22,2.66 c-0.648,0.13-1.321,0.153-1.956,0.323c-0.232,0.062-0.563,0.434-0.537,0.62c0.04,0.279,0.306,0.641,0.565,0.745 c0.346,0.139,0.777,0.079,1.171,0.078c3.927-0.004,7.855-0.009,11.782-0.025c0.736-0.003,1.857,0.441,1.966-0.653 c0.116-1.164-1.113-0.861-1.809-0.97c-2.254-0.351-2.917-1.031-2.919-3.282c-0.009-8.699-0.01-17.397-0.002-26.096 C182.171,19.506,182.858,18.75,185.007,18.442z"/>
<path d="M250.262,16.792c-0.734,0.007-1.904-0.401-1.978,0.672c-0.075,1.089,1.163,0.817,1.859,0.894 c2.791,0.306,3.362,0.827,3.42,3.617c0.135,6.486,0.233,12.973,0.337,19.46c0.008,0.496-0.052,0.994-0.101,1.86 c-0.761-0.961-1.281-1.606-1.788-2.261c-5.941-7.679-11.889-15.354-17.808-23.05c-0.678-0.881-1.413-1.289-2.561-1.254 c-2.512,0.077-5.029,0.007-7.544,0.001c-0.397-0.001-0.82-0.062-1.182,0.056c-0.279,0.091-0.651,0.407-0.668,0.646 c-0.016,0.22,0.345,0.593,0.612,0.68c0.45,0.146,0.954,0.139,1.438,0.162c1.967,0.092,2.582,0.647,2.798,2.603 c0.063,0.569,0.071,1.146,0.072,1.719c0.004,7.328,0.018,14.656-0.01,21.983c-0.006,1.495-0.141,2.993-0.272,4.484 c-0.098,1.118-0.807,1.723-1.88,1.915c-0.608,0.109-1.258,0.088-1.822,0.302c-0.498,0.189-0.903,0.622-1.349,0.948 c0.49,0.2,0.972,0.424,1.473,0.587c0.196,0.063,0.436-0.017,0.657-0.025c2.422-0.082,4.843-0.172,7.265-0.237 c0.838-0.022,1.687,0.1,2.512,0.003c0.481-0.057,0.927-0.418,1.388-0.643c-0.421-0.274-0.813-0.624-1.271-0.8 c-0.397-0.153-0.871-0.097-1.309-0.155c-1.95-0.26-2.736-1.004-2.946-2.956c-0.16-1.49-0.263-2.991-0.285-4.489 c-0.084-5.516-0.127-11.033-0.178-16.55c-0.014-1.526-0.002-3.052-0.002-4.578c0.101-0.039,0.201-0.078,0.302-0.116 c0.279,0.329,0.567,0.65,0.834,0.988c2.849,3.598,5.695,7.198,8.543,10.797c4.928,6.23,9.841,12.473,14.814,18.667 c0.399,0.497,1.22,0.656,1.845,0.972c0.191-0.586,0.549-1.172,0.548-1.758c-0.007-9.799-0.064-19.598-0.095-29.397 c-0.01-3.145,0.265-3.918,3.413-4.043c0.131-0.005,0.29-0.001,0.387-0.07c0.451-0.317,0.885-0.658,1.325-0.991c-0.512-0.222-1.022-0.627-1.538-0.636C256.431,16.74,253.346,16.763,250.262,16.792z"/>
<path d="M411.517,35.415c-0.001-0.075-0.002-0.151-0.003-0.226c-2.118,0-4.237,0.001-6.355-0.001c-0.353,0-0.734-0.097-1.052,0.006 c-0.375,0.121-0.695,0.41-1.039,0.626c0.318,0.252,0.602,0.638,0.96,0.726c0.633,0.155,1.31,0.119,1.968,0.177 c1.807,0.16,2.759,0.891,2.777,2.577c0.034,3.083-0.081,6.171-0.25,9.251c-0.073,1.338-0.877,2.251-2.232,2.652 c-3.672,1.087-7.117,0.497-10.252-1.572c-4.281-2.825-6.327-7.06-6.818-12.019c-0.67-6.77,1.308-12.667,6.452-17.282 c4.711-4.226,13.536-3.56,16.507,2.95c0.091,0.2,0.178,0.433,0.338,0.564c0.409,0.334,0.858,0.618,1.29,0.922 c0.138-0.479,0.42-0.968,0.386-1.434c-0.09-1.229-0.336-2.446-0.485-3.672c-0.153-1.251-0.803-2.034-2.056-2.239 c-2.257-0.368-4.509-0.911-6.78-1.016c-5.713-0.265-11.123,0.938-15.696,4.53c-12.039,9.455-7.375,25.081,2.063,29.774 c7.6,3.779,15.208,3.039,22.663-0.664c0.99-0.492,1.4-1.29,1.367-2.361c-0.075-2.426-0.127-4.853-0.227-7.278 c-0.126-3.054,0.292-3.571,3.275-3.89c0.088-0.009,0.194,0.014,0.261-0.028c0.43-0.269,0.852-0.552,1.276-0.83 c-0.442-0.184-0.888-0.533-1.326-0.525C416.189,35.178,413.853,35.312,411.517,35.415z"/>
<path d="M447.723,44.848c-0.641,0.945-1.079,2.032-1.75,2.951c-2.62,3.585-6.416,3.462-10.214,3.004 c-2.231-0.269-3.064-1.293-3.108-3.567c-0.073-3.707-0.024-7.416-0.041-11.124c-0.005-1.154,0.559-1.729,1.689-1.729 c1.544-0.001,3.093-0.026,4.632,0.069c1.798,0.111,3.047,1.08,3.702,2.761c0.288,0.738,0.43,1.541,0.781,2.243 c0.177,0.354,0.672,0.548,1.023,0.815c0.154-0.376,0.438-0.75,0.442-1.127c0.018-1.984-0.088-3.971-0.045-5.954 c0.032-1.497,0.253-2.989,0.322-4.486c0.015-0.324-0.263-0.662-0.406-0.993c-0.309,0.247-0.717,0.436-0.905,0.755 c-0.311,0.525-0.461,1.142-0.712,1.706c-0.562,1.262-1.559,2.131-2.887,2.292c-2.005,0.243-4.038,0.293-6.061,0.33 c-0.97,0.018-1.546-0.565-1.555-1.594c-0.008-0.927-0.027-1.854-0.025-2.781c0.006-2.604,0.002-5.209,0.04-7.813 c0.016-1.078,0.291-2.12,1.584-2.237c2.879-0.258,5.734-0.123,8.479,0.922c2.085,0.793,3.04,2.565,3.908,4.442 c0.154,0.333,0.617,0.523,0.937,0.78c0.184-0.36,0.515-0.715,0.527-1.08c0.056-1.808,0.026-3.619,0.03-5.429 c0.002-0.987-0.421-1.349-1.461-1.333c-3.883,0.061-7.768,0.025-11.652,0.025c0-0.002,0-0.004,0-0.005 c-3.884,0-7.769,0-11.653,0.001c-0.265,0-0.568-0.069-0.784,0.037c-0.276,0.136-0.652,0.404-0.668,0.637 c-0.017,0.241,0.3,0.581,0.556,0.742c0.242,0.152,0.593,0.141,0.898,0.179c2.697,0.34,3.261,0.956,3.262,3.639 c0.005,8.123-0.004,16.245,0.003,24.368c0.004,4.023,0.014,4.023-3.86,4.845c-0.086,0.018-0.205,0-0.256,0.051 c-0.228,0.228-0.651,0.531-0.606,0.703c0.079,0.303,0.419,0.572,0.708,0.773c0.154,0.107,0.428,0.051,0.648,0.05 c7.68-0.048,15.359-0.098,23.039-0.15c0.353-0.002,0.788,0.1,1.04-0.066c0.452-0.298,1.056-0.714,1.139-1.166 c0.366-1.992,0.602-4.01,0.807-6.027c0.047-0.465-0.214-0.961-0.333-1.442C448.525,44.188,448.003,44.436,447.723,44.848z"/>
<path d="M217.97,43.883c-0.133-0.075-0.59,0.182-0.724,0.398c-0.51,0.824-0.914,1.714-1.418,2.542 c-1.379,2.265-3.278,3.832-6.008,4.065c-1.403,0.12-2.83,0.135-4.233,0.026c-2.686-0.208-3.667-1.153-3.746-3.828 c-0.108-3.662-0.034-7.329-0.042-10.994c-0.002-1.147,0.575-1.714,1.708-1.713c1.324,0.001,2.649-0.01,3.972,0.037 c2.524,0.089,3.771,1.042,4.584,3.445c0.211,0.625,0.361,1.279,0.648,1.866c0.125,0.256,0.538,0.534,0.794,0.51 c0.202-0.019,0.51-0.477,0.52-0.749c0.131-3.613,0.23-7.228,0.293-10.843c0.005-0.311-0.301-0.627-0.463-0.94 c-0.278,0.239-0.628,0.432-0.815,0.729c-0.254,0.404-0.387,0.885-0.565,1.336c-0.555,1.409-1.515,2.497-3.023,2.69 c-2.003,0.257-4.039,0.285-6.062,0.344c-0.922,0.027-1.537-0.505-1.538-1.458c-0.005-3.75,0.019-7.501,0.065-11.251 c0.015-1.192,0.77-1.781,1.887-1.775c1.718,0.01,3.469-0.052,5.141,0.263c1.522,0.286,3.153,0.766,4.373,1.657 c1.058,0.772,1.583,2.257,2.396,3.39c0.253,0.353,0.675,0.585,1.02,0.873c0.177-0.412,0.494-0.82,0.508-1.238 c0.057-1.72,0.015-3.443,0.025-5.165c0.006-1.03-0.38-1.449-1.508-1.427c-3.884,0.073-7.77,0.028-11.656,0.028 c0-0.003,0-0.006,0-0.009c-3.885,0-7.771,0-11.657,0.001c-0.221,0-0.476-0.059-0.654,0.03c-0.285,0.143-0.519,0.387-0.774,0.588 c0.226,0.279,0.414,0.61,0.692,0.82c0.189,0.143,0.505,0.128,0.767,0.163c2.772,0.363,3.308,0.961,3.309,3.732 c0.002,8.125,0.003,16.25,0.001,24.375c-0.001,3.911-0.003,3.911-3.846,4.739c-0.171,0.037-0.385,0.041-0.499,0.147 c-0.178,0.165-0.417,0.422-0.392,0.609c0.033,0.253,0.241,0.564,0.464,0.69c0.247,0.139,0.596,0.132,0.901,0.13 c7.726-0.045,15.452-0.096,23.178-0.152c0.395-0.003,0.822,0.027,1.177-0.109c0.333-0.129,0.805-0.425,0.846-0.703 c0.347-2.355,0.628-4.72,0.871-7.088C218.511,44.409,218.218,44.022,217.97,43.883z"/>
<path d="M376.307,44.496c-0.126,0.095-0.173,0.302-0.242,0.464c-1.887,4.455-5.192,6.528-10.054,5.994 c-0.262-0.029-0.529-0.009-0.794-0.019c-2.992-0.113-4.118-1.166-4.164-4.114c-0.056-3.575,0.009-7.151-0.005-10.726 c-0.005-1.173,0.567-1.709,1.692-1.713c1.28-0.005,2.561-0.016,3.839,0.028c2.685,0.094,3.929,1.036,4.775,3.569 c0.14,0.418,0.172,0.894,0.398,1.254c0.252,0.402,0.668,0.701,1.013,1.046c0.171-0.445,0.473-0.885,0.491-1.337 c0.111-2.819,0.157-5.64,0.229-8.46c0.018-0.706,0.082-1.412,0.06-2.116c-0.007-0.218-0.231-0.609-0.35-0.607 c-0.26,0.004-0.616,0.144-0.752,0.349c-0.238,0.358-0.344,0.806-0.498,1.218c-0.731,1.947-2.031,3.172-4.191,3.303 c-1.275,0.078-2.55,0.199-3.826,0.212c-2.65,0.027-2.909-0.258-2.867-2.854c0.011-0.662,0.002-1.324,0.005-1.987 c0.011-2.559,0.008-5.119,0.04-7.678c0.013-1.032,0.441-1.867,1.57-1.957c2.879-0.23,5.735-0.133,8.475,0.943 c1.967,0.773,2.96,2.394,3.776,4.216c0.18,0.403,0.716,0.647,1.087,0.965c0.159-0.421,0.442-0.838,0.455-1.263 c0.052-1.72-0.014-3.444,0.032-5.164c0.03-1.12-0.456-1.39-1.522-1.384c-7.548,0.046-15.096,0.029-22.645,0.033 c-0.441,0-0.901-0.077-1.316,0.027c-0.281,0.07-0.667,0.374-0.696,0.612c-0.029,0.231,0.286,0.602,0.542,0.746 c0.289,0.162,0.68,0.151,1.029,0.194c2.457,0.3,3.131,1.023,3.142,3.508c0.019,4.282,0.005,8.564,0.005,12.847 c0.002,0,0.003,0,0.005,0c0,4.061,0.003,8.123-0.001,12.184c-0.003,3.354-0.347,3.756-3.625,4.284 c-0.174,0.028-0.399-0.003-0.512,0.095c-0.241,0.208-0.584,0.484-0.584,0.732c0,0.241,0.337,0.562,0.602,0.697 c0.251,0.127,0.603,0.073,0.91,0.071c7.415-0.046,14.83-0.099,22.245-0.141c2.689-0.015,2.685-0.003,3.018-2.691 c0.206-1.662,0.456-3.319,0.619-4.986c0.032-0.331-0.242-0.692-0.375-1.039C376.994,44.062,376.631,44.253,376.307,44.496z"/>
<path d="M144.917,43.146c-0.266-0.094-0.787,0.125-0.999,0.375c-0.393,0.462-0.64,1.048-0.953,1.58 c-1.519,2.579-3.171,5.086-6.193,6.059c-4.233,1.363-8.032,0.332-11.32-2.554c-6.964-6.113-7.791-18.707-1.754-26.062 c5.609-6.833,14.344-6.481,19.333,0.777c0.199,0.29,0.383,0.628,0.661,0.816c0.298,0.202,0.757,0.416,1.034,0.316 c0.216-0.078,0.381-0.636,0.361-0.968c-0.08-1.275-0.23-2.545-0.38-3.815c-0.146-1.232-0.786-2.033-2.062-2.234 c-2.823-0.445-5.646-0.891-8.47-1.336c-4.237,0.211-8.238,1.144-11.773,2.984c-10.518,5.476-12.938,18.221-5.201,27.146 c3.791,4.374,8.691,6.404,14.297,6.831c4.004,0.305,7.952-0.234,11.588-2.068c0.771-0.389,1.606-1.25,1.807-2.046 c0.394-1.562,0.392-3.229,0.483-4.857C145.392,43.767,145.159,43.231,144.917,43.146z"/>
<path d="M479.6,44.074c-0.344,0.214-0.718,0.393-1.02,0.654c-0.188,0.163-0.26,0.455-0.397,0.681 c-1.99,3.294-4.699,5.423-8.721,5.604c-3.721,0.167-5.292-1.081-5.329-4.857c-0.083-8.299-0.036-16.599,0.001-24.898 c0.009-1.905,0.803-2.664,2.727-2.92c0.48-0.064,0.985-0.068,1.43-0.231c0.273-0.1,0.453-0.45,0.675-0.688 c-0.27-0.239-0.504-0.57-0.819-0.69c-0.307-0.117-0.695-0.017-1.048-0.016c-3.351,0.012-6.702,0.028-10.053,0.033 c-0.971,0.001-1.945-0.08-2.91-0.01c-0.287,0.021-0.546,0.43-0.817,0.661c0.212,0.245,0.389,0.544,0.649,0.719 c0.202,0.136,0.506,0.13,0.768,0.165c2.873,0.382,3.346,0.9,3.357,3.826c0.016,4.194,0.004,8.388,0.004,12.582 c0,1.413,0.003,2.825-0.001,4.238c-0.008,3.09,0.031,6.181-0.048,9.269c-0.048,1.851-0.725,2.495-2.537,2.782 c-0.305,0.048-0.65,0.01-0.91,0.141c-0.453,0.229-0.856,0.559-1.279,0.847c0.492,0.251,0.979,0.704,1.478,0.717 c1.673,0.045,3.351-0.107,5.027-0.111c5.916-0.014,11.831,0.022,17.747-0.029c0.532-0.005,1.457-0.427,1.525-0.784 c0.419-2.202,0.666-4.438,0.909-6.67C480.041,44.77,479.744,44.414,479.6,44.074z"/>
<path d="M341.184,21.929c0.012-2.682,0.622-3.33,3.276-3.641c0.349-0.041,0.727-0.058,1.029-0.21 c0.236-0.119,0.56-0.478,0.516-0.643c-0.072-0.271-0.372-0.568-0.647-0.676c-0.308-0.121-0.694-0.053-1.047-0.053 c-3.927,0.002-7.855-0.019-11.781,0.032c-0.733,0.009-1.978-0.574-2.057,0.671c-0.07,1.084,1.162,0.791,1.88,0.901 c1.953,0.299,2.768,0.998,2.773,2.728c0.025,9.095,0.023,18.191,0.001,27.286c-0.004,1.6-0.676,2.31-2.258,2.608 c-0.607,0.114-1.241,0.121-1.825,0.301c-0.262,0.081-0.594,0.468-0.594,0.716c0,0.237,0.349,0.589,0.617,0.684 c0.355,0.125,0.781,0.056,1.176,0.056c3.971,0,7.942-0.002,11.913-0.008c0.714-0.001,1.66,0.326,1.812-0.712 c0.033-0.223-0.997-0.782-1.589-0.883c-2.701-0.461-3.192-0.961-3.202-3.722c-0.014-4.239-0.004-8.477-0.004-12.716 c0.001,0,0.003,0,0.004,0C341.179,30.407,341.164,26.168,341.184,21.929z"/>
<path d="M102.937,22.239c-6.855-7.135-18.747-7.917-26.758-1.805c-7.655,5.841-9.453,16.553-3.856,24.343 c4.695,6.535,11.248,9.105,19.204,8.052c8.92-1.181,16.251-9.489,16.244-18.349C107.775,29.762,106.207,25.643,102.937,22.239z M101.066,36.199c-0.254,3.876-1.39,7.526-3.605,10.787c-3.771,5.553-10.775,6.341-15.702,1.752 c-3.789-3.529-6.009-9.273-5.954-13.841c0.086-5.463,0.786-9.222,3.16-12.521c4.257-5.916,12.74-6.332,17.54-0.811 C100.156,25.766,101.421,30.773,101.066,36.199z"/>
<path d="M319.506,17.153c-3.383-0.41-6.857-0.075-10.289-0.075c0-0.104,0-0.208,0-0.312c-2.558,0-5.117-0.026-7.675,0.016 c-0.764,0.012-1.992-0.449-2.09,0.702c-0.092,1.072,1.136,0.817,1.859,0.93c2.038,0.321,2.81,1.017,2.814,2.829 c0.019,9.007,0.018,18.014-0.001,27.021c-0.004,1.673-0.666,2.383-2.328,2.684c-0.521,0.095-1.082,0.057-1.564,0.24 c-0.339,0.129-0.574,0.529-0.856,0.808c0.326,0.237,0.632,0.512,0.985,0.697c0.172,0.09,0.432,0.011,0.653,0.01 c4.059-0.003,8.118-0.005,12.177-0.01c0.352,0,0.733,0.067,1.046-0.047c0.286-0.104,0.728-0.458,0.695-0.619 c-0.063-0.31-0.369-0.63-0.658-0.815c-0.238-0.151-0.597-0.115-0.903-0.157c-2.657-0.36-3.223-0.988-3.235-3.692 c-0.015-3.488-0.012-6.976,0-10.464c0.005-1.542,0.233-1.622,1.737-1.227c1.988,0.522,4.006,1.233,6.025,1.277 c5.408,0.12,9.855-3.968,10.253-9.082C328.591,22.199,325.295,17.854,319.506,17.153z M320.053,32.024 c-1.83,2.428-5.138,3.248-8.407,2.331c-1.048-0.294-1.556-0.846-1.525-1.968c0.048-1.763,0.013-3.528,0.013-5.292 c-0.032-0.001-0.064-0.003-0.096-0.004c0.1-2.154,0.106-4.319,0.331-6.46c0.176-1.672,1.077-2.368,2.723-2.508 c3.176-0.27,6.259,1.342,7.671,4.179C322.429,25.65,322.353,28.973,320.053,32.024z"/>
</g>
</svg>
